<svg width="36" height="36" viewBox="0 0 36 36" fill="none" xmlns="http://www.w3.org/2000/svg">
<rect x="0.833252" y="0.416992" width="35.1667" height="35.1667" rx="8.79167" fill="#FAF9F6"/>
<path d="M27.5597 0.416992H9.27301C4.61342 0.416992 0.833008 4.19741 0.833008 8.85699V27.1437C0.833008 31.8032 4.61342 35.5837 9.27301 35.5837H27.5597C32.2193 35.5837 35.9997 31.8032 35.9997 27.1437V8.85699C35.9997 4.19741 32.2193 0.416992 27.5597 0.416992ZM23.6738 11.2483C23.5577 11.2483 23.4522 11.2483 23.3467 11.2483C22.675 11.2589 21.9998 11.2448 21.3282 11.287C20.5334 11.3362 20.0867 11.7336 20.034 12.5284C19.9777 13.4357 20.0199 14.3535 20.0199 15.2995C21.1769 15.2995 22.348 15.2995 23.5331 15.2995C23.5331 16.5128 23.5331 17.6909 23.5331 18.9041C22.3445 18.9041 21.1769 18.9041 19.9848 18.9041C19.9848 21.9953 19.9848 25.0512 19.9848 28.1213C18.7399 28.1213 17.5196 28.1213 16.2747 28.1213C16.2747 25.0512 16.2747 21.9953 16.2747 18.8971C16.1586 18.8971 16.0637 18.8971 15.9687 18.8971C15.1177 18.8971 14.2632 18.8971 13.4121 18.8971C13.2679 18.8971 13.1519 18.9041 13.1554 18.6966C13.1624 17.61 13.1589 16.5268 13.1624 15.4402C13.1624 15.405 13.173 15.3734 13.1871 15.3066C14.2069 15.3066 15.2267 15.3066 16.2712 15.3066C16.2712 15.1237 16.2677 14.976 16.2712 14.8248C16.2852 13.8577 16.2466 12.8836 16.3239 11.92C16.5209 9.56032 18.0928 8.03409 20.456 7.90749C21.518 7.85122 22.5871 7.89694 23.6702 7.89694C23.6738 9.01173 23.6738 10.1124 23.6738 11.2483Z" fill="#0866FF"/>
</svg>
