<svg width="36" height="36" viewBox="0 0 36 36" fill="none" xmlns="http://www.w3.org/2000/svg">
<rect y="0.416992" width="35.1667" height="35.1667" rx="9.52431" fill="#FAF9F6"/>
<g clip-path="url(#clip0_6415_3525)">
<path d="M15.5968 15.7383V14.8673C15.2945 14.8244 14.9895 14.8023 14.6843 14.8008C10.9504 14.8008 7.9126 17.8391 7.9126 21.573C7.9126 23.8634 9.05731 25.891 10.8035 27.1171C9.63425 25.8667 8.9841 24.2185 8.9851 22.5065C8.9851 18.8258 11.9366 15.8241 15.5968 15.7383Z" fill="#00F2EA"/>
<path d="M15.7563 25.5992C17.4224 25.5992 18.7812 24.2738 18.8433 22.6221L18.849 7.87787H21.5426C21.4851 7.56992 21.456 7.2575 21.4558 6.94434H17.7767L17.7705 21.6891C17.7092 23.3403 16.3496 24.6651 14.6841 24.6651C14.184 24.6654 13.6915 24.5435 13.2493 24.31C13.8287 25.1185 14.7617 25.5982 15.7563 25.5992ZM26.5741 12.8828V12.0634C25.5842 12.0644 24.6155 11.7763 23.7869 11.2348C24.5135 12.0713 25.4914 12.6495 26.5746 12.8828" fill="#00F2EA"/>
<path d="M23.7866 11.2334C22.9746 10.3043 22.5272 9.11197 22.5277 7.87793H21.5421C21.7999 9.25615 22.6111 10.4689 23.7866 11.2334ZM14.6837 18.4793C12.9765 18.4813 11.593 19.8648 11.5911 21.572C11.5921 22.7214 12.2303 23.7756 13.2484 24.3096C12.868 23.785 12.6633 23.154 12.6633 22.5061C12.6651 20.7988 14.0485 19.4149 15.756 19.4129C16.0746 19.4129 16.3801 19.4655 16.6684 19.5561V15.8001C16.3662 15.7571 16.0612 15.7351 15.756 15.7336C15.7024 15.7336 15.6495 15.7366 15.5964 15.7375V18.6225C15.3011 18.5287 14.9934 18.4803 14.6837 18.4793Z" fill="#FF004F"/>
<path d="M26.5741 12.8826V15.742C24.666 15.742 22.899 15.1318 21.4555 14.096V21.5727C21.4555 25.3066 18.4182 28.3445 14.6843 28.3445C13.2413 28.3445 11.9033 27.8891 10.8035 27.1169C12.0817 28.4954 13.8765 29.2785 15.7563 29.278C19.4902 29.278 22.528 26.2402 22.528 22.5068V15.0301C24.0191 16.1023 25.81 16.6783 27.6466 16.676V12.996C27.2783 12.996 26.9202 12.956 26.5738 12.8818" fill="#FF004F"/>
<path d="M21.4551 21.572V14.0953C22.9462 15.1678 24.7371 15.7435 26.5737 15.7413V12.8821C25.4907 12.6486 24.5128 12.0702 23.7864 11.2334C22.611 10.4689 21.7998 9.25615 21.5419 7.87793H18.8485L18.8428 22.6222C18.781 24.2734 17.4219 25.5987 15.7559 25.5987C14.7615 25.5977 13.8282 25.1178 13.2491 24.3098C12.2309 23.7761 11.5924 22.7219 11.5912 21.5723C11.5932 19.865 12.9766 18.4816 14.6839 18.4796C15.002 18.4796 15.3074 18.5317 15.5963 18.6228V15.7378C11.9361 15.8237 8.98462 18.8253 8.98462 22.506C8.98462 24.286 9.67621 25.9064 10.8031 27.1166C11.9391 27.9164 13.2947 28.345 14.6839 28.3437C18.418 28.3437 21.4551 25.3059 21.4551 21.572Z" fill="black"/>
</g>
<defs>
<clipPath id="clip0_6415_3525">
<rect width="22.6071" height="22.6071" fill="white" transform="translate(6.02856 6.94727)"/>
</clipPath>
</defs>
</svg>
