<svg width="24" height="22" viewBox="0 0 24 22" fill="none" xmlns="http://www.w3.org/2000/svg">
<path d="M22.5264 7.58595L20.8848 2.66115C20.6467 1.94413 20.1886 1.32039 19.5757 0.878564C18.9629 0.436736 18.2263 0.199281 17.4708 0.199953H6.5292C5.77367 0.199281 5.03713 0.436736 4.42426 0.878564C3.81138 1.32039 3.35334 1.94413 3.1152 2.66115L1.4736 7.58595C1.03706 7.76859 0.664272 8.07627 0.402084 8.47011C0.139884 8.86407 0 9.32679 0 9.79995V15.8C0 16.6856 0.4848 17.4512 1.2 17.8675V20.6C1.2 20.9182 1.32643 21.2235 1.55147 21.4485C1.77652 21.6735 2.08174 21.8 2.4 21.8H3.6C3.91826 21.8 4.22348 21.6735 4.44853 21.4485C4.67357 21.2235 4.8 20.9182 4.8 20.6V18.2H19.2V20.6C19.2 20.9182 19.3265 21.2235 19.5515 21.4485C19.7765 21.6735 20.0818 21.8 20.4 21.8H21.6C21.9182 21.8 22.2235 21.6735 22.4485 21.4485C22.6735 21.2235 22.8 20.9182 22.8 20.6V17.8675C23.1641 17.6588 23.4667 17.3577 23.6773 16.9947C23.888 16.6318 23.9993 16.2196 24 15.8V9.79995C24 9.32679 23.8601 8.86407 23.5979 8.47011C23.3357 8.07627 22.963 7.76859 22.5264 7.58595ZM6.5292 2.59995H17.4696C17.9868 2.59995 18.4452 2.92875 18.6084 3.42075L19.9356 7.39995H4.0644L5.3904 3.42075C5.47002 3.18171 5.62286 2.97379 5.82726 2.82646C6.03166 2.67914 6.27725 2.59989 6.5292 2.59995ZM4.2 14.6C3.96354 14.5998 3.72942 14.5533 3.51098 14.4627C3.29256 14.3721 3.0941 14.2394 2.92696 14.0722C2.75981 13.9049 2.62724 13.7063 2.53684 13.4879C2.44642 13.2694 2.39992 13.0352 2.4 12.7988C2.40008 12.5624 2.44673 12.3281 2.53729 12.1097C2.62786 11.8913 2.76055 11.6928 2.92781 11.5257C3.09506 11.3585 3.2936 11.226 3.5121 11.1356C3.73058 11.0452 3.96474 10.9986 4.2012 10.9988C4.67875 10.9989 5.13667 11.1887 5.47424 11.5265C5.8118 11.8643 6.00136 12.3224 6.0012 12.8C6.00104 13.2776 5.81118 13.7355 5.47339 14.073C5.1356 14.4106 4.67755 14.6001 4.2 14.6ZM19.8 14.6C19.5636 14.5998 19.3294 14.5533 19.111 14.4627C18.8926 14.3721 18.6941 14.2394 18.5269 14.0722C18.3598 13.9049 18.2273 13.7063 18.1368 13.4879C18.0464 13.2694 17.9999 13.0352 18 12.7988C18.0001 12.5624 18.0467 12.3281 18.1373 12.1097C18.2279 11.8913 18.3606 11.6928 18.5278 11.5257C18.695 11.3585 18.8936 11.226 19.112 11.1356C19.3306 11.0452 19.5648 10.9986 19.8012 10.9988C20.2788 10.9989 20.7367 11.1887 21.0743 11.5265C21.4118 11.8643 21.6013 12.3224 21.6012 12.8C21.6011 13.2776 21.4112 13.7355 21.0734 14.073C20.7356 14.4106 20.2776 14.6001 19.8 14.6Z"/>
</svg>
