<svg width="22" height="22" viewBox="0 0 22 22" fill="none" xmlns="http://www.w3.org/2000/svg">
<path d="M19.8139 13.764C20.1779 13.749 20.5369 13.602 20.8149 13.323C21.3989 12.736 21.3959 11.786 20.8089 11.202L10.3329 0.786977C9.74493 0.202977 8.79593 0.203977 8.21193 0.792977C7.62793 1.37998 7.63093 2.32998 8.21793 2.91398L13.4709 8.15198C13.8609 8.54298 13.8599 9.17598 13.4699 9.56698C13.2749 9.76198 13.0189 9.85898 12.7629 9.85898C12.5069 9.85898 12.2499 9.76098 12.0549 9.56598L5.43193 2.92098C4.84693 2.33398 3.89693 2.33298 3.30993 2.91798C2.72293 3.50298 2.72193 4.45298 3.30693 5.03998L4.41793 6.15398C1.71993 9.00998 0.214935 11.453 0.146935 11.564C-0.0290654 11.851 -0.0480654 12.208 0.0959345 12.512C0.150935 12.628 1.46293 15.381 3.85993 17.783C6.25193 20.179 9.00393 21.499 9.11993 21.554C9.25593 21.619 9.40293 21.651 9.54893 21.651C9.73193 21.651 9.91393 21.601 10.0739 21.502C10.1959 21.426 13.1039 19.618 16.2479 16.468C17.4029 15.311 18.3039 14.262 18.9109 13.509C19.1819 13.693 19.4999 13.779 19.8149 13.766L19.8139 13.764Z"/>
</svg>
