<svg width="22" height="24" viewBox="0 0 22 24" fill="none" xmlns="http://www.w3.org/2000/svg">
<path d="M20.5262 8.28399L12.9372 0.878993C12.2782 0.218993 11.3302 -0.104007 10.4092 0.027993L3.52121 0.969993C2.97421 1.04499 2.59121 1.54899 2.66621 2.09599C2.74121 2.64299 3.24421 3.02499 3.79321 2.95099L10.6822 2.00899C10.9882 1.96699 11.3042 2.07199 11.5332 2.30099L19.1232 9.70599C20.1682 10.751 20.2702 12.386 19.4462 13.553C19.2122 13.086 18.9232 12.641 18.5352 12.253L11.0602 4.84099C10.4022 4.18299 9.46321 3.86599 8.53221 3.98999L1.64321 4.93199C1.18921 4.99399 0.835209 5.35699 0.785209 5.81299L0.0202089 12.729C-0.0797911 13.64 0.234209 14.533 0.884209 15.182L8.30021 22.535C9.24421 23.48 10.4992 23.999 11.8342 23.999H11.8512C13.1932 23.995 14.4512 23.467 15.3942 22.512L18.5612 19.304C19.4882 18.365 19.9542 17.145 19.9842 15.916L20.5612 15.34C22.4862 13.39 22.4752 10.228 20.5292 8.28299L20.5262 8.28399ZM5.00021 9.99999C4.44821 9.99999 4.00021 9.55199 4.00021 8.99999C4.00621 7.69199 5.99421 7.69299 6.00021 8.99999C6.00021 9.55199 5.55221 9.99999 5.00021 9.99999Z"/>
</svg>
