<svg width="24" height="24" viewBox="0 0 24 24" fill="none" xmlns="http://www.w3.org/2000/svg">
<path d="M22.39 14.277C19.64 12.115 18.535 9.89496 17.465 7.74496C16.756 6.31996 16.083 4.96796 15.001 3.77396V0.866963C15.001 0.289963 14.445 -0.125037 13.891 0.0349626C12.5 0.435963 11.42 1.69296 11.099 3.11696C4.198 3.92096 0 8.89396 0 16.5V22C0 23.105 0.895 24 2 24H12.195C13.531 24 14.412 22.61 13.844 21.402C13.335 20.32 12.857 19.301 12.839 19.252L12.001 17L20.335 20.85C21.232 21.264 22.294 21.041 22.949 20.301L22.964 20.284C23.714 19.439 24.086 18.308 23.985 17.182C23.883 16.051 23.302 14.992 22.391 14.276L22.39 14.277ZM14.5 13C13.672 13 13 12.328 13 11.5C13 10.672 13.672 9.99996 14.5 9.99996C15.328 9.99996 16 10.672 16 11.5C16 12.328 15.328 13 14.5 13Z"/>
</svg>
