<svg width="24" height="24" viewBox="0 0 24 24" fill="none" xmlns="http://www.w3.org/2000/svg">
<path d="M12 0C8.81846 0.00344108 5.76821 1.26883 3.51852 3.51852C1.26883 5.76821 0.00344108 8.81846 0 12C0.6 27.9 23.4 27.893 24 12C23.9966 8.81846 22.7312 5.76821 20.4815 3.51852C18.2318 1.26883 15.1815 0.00344108 12 0ZM12 13C11.7156 13.0038 11.4324 13.0373 11.155 13.1C11.1292 12.5423 10.9767 11.9979 10.709 11.508C10.9583 11.414 11.1965 11.2926 11.419 11.146C11.6303 10.9972 11.8251 10.8263 12 10.636C12.3523 11.0275 12.7957 11.326 13.291 11.505C13.0233 11.9949 12.8708 12.5393 12.845 13.097C12.5675 13.0353 12.2843 13.0028 12 13ZM18.029 8.461L15.19 9.646C14.9476 9.74214 14.6855 9.77761 14.4263 9.7493C14.1671 9.72099 13.9188 9.62977 13.7029 9.48358C13.487 9.33739 13.3101 9.14065 13.1876 8.91049C13.0651 8.68034 13.0007 8.42373 13 8.163V5.08C14.0379 5.23119 15.0286 5.61347 15.899 6.19865C16.7694 6.78382 17.4973 7.55695 18.029 8.461ZM11 5.08V8.163C10.9995 8.42336 10.9354 8.67966 10.8134 8.90965C10.6914 9.13965 10.5151 9.33639 10.2998 9.48281C10.0845 9.62922 9.83672 9.72089 9.57798 9.74985C9.31924 9.77881 9.05733 9.74419 8.815 9.649L5.956 8.485C6.48625 7.57439 7.21524 6.79525 8.08861 6.20568C8.96198 5.6161 9.95718 5.23131 11 5.08ZM5.207 10.339L7.837 11.412C8.13908 11.5326 8.4095 11.7208 8.62748 11.9622C8.84547 12.2036 9.00521 12.4918 9.09444 12.8046C9.18366 13.1174 9.2 13.4464 9.1422 13.7665C9.0844 14.0866 8.95399 14.3892 8.761 14.651L7.014 16.9C6.1796 16.0504 5.57574 15.0019 5.25954 13.8539C4.94334 12.7058 4.92526 11.496 5.207 10.339ZM8.607 18.117L10.4 15.8C10.5931 15.5599 10.8379 15.3664 11.116 15.2338C11.3941 15.1012 11.6985 15.0328 12.0066 15.0339C12.3148 15.035 12.6187 15.1054 12.8959 15.2399C13.1731 15.3744 13.4165 15.5696 13.608 15.811L15.388 18.121C14.3488 18.6925 13.182 18.9919 11.996 18.9912C10.81 18.9905 9.64349 18.6898 8.605 18.117H8.607ZM16.983 16.911L15.25 14.662C15.0536 14.3995 14.9205 14.0952 14.8611 13.7728C14.8017 13.4504 14.8177 13.1186 14.9077 12.8034C14.9978 12.4882 15.1594 12.1981 15.3801 11.9557C15.6008 11.7132 15.8746 11.5251 16.18 11.406L18.788 10.315C19.0761 11.4772 19.0612 12.6939 18.7449 13.8487C18.4285 15.0035 17.8212 16.0579 16.981 16.911H16.983Z"/>
</svg>
