<svg width="103" height="70" viewBox="0 0 103 70" fill="none" xmlns="http://www.w3.org/2000/svg">
<path d="M50.7444 1.29999C50.4881 2.99457 50.1038 6.36051 50.0106 7.75331C49.964 8.36847 49.8708 8.85595 49.801 8.87917C49.7311 8.90238 48.8109 9.00684 47.751 9.1113C44.9674 9.38986 41.2053 10.0514 39.4 10.5737C38.608 10.8059 38.4799 10.8987 37.2919 12.0246C35.8476 13.3942 34.9741 14.404 33.8909 16.0057C33.4716 16.6208 33.0639 17.1199 32.9824 17.1083C32.9125 17.0967 32.6213 17.0851 32.3651 17.0735L31.8875 17.0619L32.1671 16.6789C32.3185 16.4816 32.5398 16.1682 32.6446 15.9825L32.8426 15.6691H28.6496H24.4566V15.9941C24.4566 16.3771 24.9808 16.9226 25.6912 17.2708C26.3085 17.5842 28.1139 17.944 29.8143 18.0949C30.5481 18.1645 33.984 18.2226 37.4433 18.2342C41.3567 18.2458 43.558 18.2922 43.2669 18.3502C43.0106 18.4083 41.182 18.6636 39.1903 18.919C33.7627 19.627 29.9774 20.1493 27.7994 20.5091L25.8426 20.8225L25.1904 21.8206C24.841 22.3661 24.3984 23.0277 24.2237 23.2831C24.0373 23.55 23.653 24.2696 23.3385 24.8848C22.826 25.9062 22.7561 26.0107 22.2786 26.1964C21.7894 26.3937 21.7661 26.4169 21.836 26.7999C21.8826 27.0553 21.8593 27.241 21.7428 27.3802C21.5914 27.5311 21.5565 28.3552 21.4982 32.1506C21.4517 34.6693 21.4633 37.5941 21.5099 38.6503L21.6031 40.5538L22.2903 37.1415C22.6746 35.2612 23.024 33.613 23.0706 33.4854C23.1754 33.1952 23.1754 33.2184 23.5831 34.9362C23.7462 35.6674 24.1072 36.921 24.3635 37.7218C24.6313 38.5227 24.8759 39.486 24.9109 39.8691L24.9808 40.5655L37.0822 40.8324C43.7328 40.9717 49.2069 41.0761 49.2302 41.0529C49.2535 41.0181 49.2186 40.0432 49.1487 38.8709C48.7643 32.3015 48.9507 15.437 49.4049 15.437C49.4748 15.437 49.4748 15.9244 49.4282 16.6789C49.37 17.3753 49.3351 20.985 49.3351 24.7223C49.3351 32.4988 49.4865 36.2478 50.0222 42.0163C50.36 45.6028 50.8725 49.4446 51.0239 49.4446C51.1753 49.4446 51.6529 46.0554 51.979 42.6547L52.1187 41.1458L55.4964 41.0645C57.36 41.0297 61.4715 40.9369 64.6395 40.8672C67.8075 40.7976 71.9073 40.7047 73.7476 40.6583L77.0787 40.5887L77.1602 39.8807C77.2068 39.486 77.4398 38.5691 77.6844 37.8379C77.929 37.1067 78.3017 35.7603 78.5113 34.8434C78.7676 33.7639 78.9306 33.2648 78.9772 33.4041C79.0238 33.5202 79.3616 35.1567 79.7343 37.037C80.3982 40.3565 80.4215 40.4378 80.5146 39.811C80.5729 39.4628 80.5962 36.5495 80.5729 33.3345C80.5379 27.8097 80.5263 27.4847 80.3283 27.3686C80.1536 27.2758 80.1186 27.1713 80.1885 26.8579C80.2584 26.4865 80.2351 26.4517 79.7576 26.2196C79.315 26.0107 79.1985 25.8598 78.7559 24.9661C78.488 24.4205 77.8008 23.2483 77.2185 22.3894L76.1819 20.8109L74.8657 20.6135C71.6861 20.1377 66.0139 19.3484 62.3217 18.8609C60.1087 18.5708 58.2801 18.3038 58.2452 18.2806C58.2219 18.2458 60.7144 18.2226 63.8009 18.2226C66.8874 18.2226 69.4148 18.1877 69.4148 18.1297C69.4148 18.0833 69.2518 17.7815 69.0654 17.4681C68.5646 16.6324 68.5879 16.5976 69.5313 16.5976H70.3466V17.8744V19.1511H71.3949H72.4431V17.8744V16.5976H74.4464H76.4381L76.8341 16.1566L77.2185 15.7271L72.5479 15.6691L67.8658 15.611L67.6794 15.3209C67.1553 14.52 66.0139 13.2433 64.8258 12.1058C63.5679 10.9103 63.4515 10.8291 62.6478 10.597C60.6911 10.0166 54.8791 9.05326 53.3068 9.05326H52.8525L52.9224 9.54074C53.0855 10.7014 53.1437 24.9544 52.9923 28.6686C52.9108 30.7462 52.8176 32.5104 52.771 32.5917C52.7244 32.6729 52.7011 30.1426 52.736 26.9624C52.8176 17.6306 52.4449 9.86573 51.583 3.24992C51.2801 0.916969 51.1287 3.8147e-05 51.0239 3.8147e-05C50.9773 3.8147e-05 50.8492 0.59198 50.7444 1.29999ZM67.6794 22.5403C68.3549 22.7376 69.1353 23.5616 69.3799 24.3277C69.9157 26.0571 68.5879 27.7865 66.7243 27.7749C64.6744 27.7517 63.4165 25.5 64.4648 23.7241C65.1054 22.6331 66.3982 22.1572 67.6794 22.5403ZM73.9689 22.5286C74.9822 22.842 75.8208 23.9911 75.8208 25.1053C75.8208 26.5446 74.6095 27.7517 73.1536 27.7749C71.8841 27.7865 70.8707 27.0436 70.5213 25.8249C69.9157 23.7473 71.8491 21.9019 73.9689 22.5286ZM28.6496 22.7492C29.3252 22.8188 31.2353 23.0045 32.9009 23.167C34.5664 23.3295 36.1271 23.5036 36.3717 23.5616C37.0706 23.7125 37.5364 24.3161 37.7344 25.3259L37.816 25.7669H31.2586H24.6896L24.8526 25.3839C24.9458 25.1866 25.2836 24.4437 25.6097 23.759L26.2037 22.5054L26.821 22.5635C27.1471 22.5983 27.9741 22.6795 28.6496 22.7492ZM46.0156 31.4658C45.3168 31.5587 41.4616 31.814 32.435 32.3827C30.3851 32.5104 28.5681 32.6497 28.3934 32.6845C28.009 32.7658 27.9857 32.9515 28.2886 33.6014C29.197 35.5862 33.3434 37.1183 39.598 37.7798C40.5298 37.8727 41.7061 38.0004 42.2186 38.0584C42.8359 38.1164 40.6579 38.1629 35.6845 38.1745L28.2187 38.1861L27.45 36.6424C26.6114 34.9594 25.9009 32.9747 25.7844 31.9765L25.7029 31.3381L36.232 31.3497C42.405 31.3613 46.4582 31.4078 46.0156 31.4658ZM76.4032 31.4194C76.4032 31.4774 76.2983 31.9649 76.1702 32.522C75.8907 33.7871 75.1453 35.7139 74.3998 37.1067L73.8175 38.1861L66.3516 38.1745L58.8741 38.1629L61.4365 37.8959C65.2102 37.5013 66.701 37.2343 69.2401 36.5031C70.7077 36.0737 72.3034 35.2612 73.0138 34.588C73.9107 33.7291 74.2251 32.8238 73.6894 32.6845C73.538 32.6497 71.7676 32.5104 69.7526 32.3827C60.7843 31.814 56.8359 31.547 56.137 31.4658C55.7177 31.4078 60.0272 31.3613 65.8974 31.3497C71.6744 31.3497 76.4032 31.3729 76.4032 31.4194Z" fill="#272727"/>
<path d="M11.4118 21.3795C11.2603 21.6813 10.9342 21.867 9.31526 22.5982C8.25536 23.0741 7.13723 23.5848 6.81111 23.7357C4.13225 24.9776 4.23707 24.9428 2.09399 25.2562C0.975856 25.4303 0.0324329 25.5811 0.00913851 25.6044C-0.0141559 25.616 0.00913851 26.0106 0.0557273 26.4632L0.137258 27.2989L0.568204 27.2409C0.801148 27.2177 1.76787 27.0784 2.71129 26.9275L4.43508 26.6722L6.4384 26.9275C7.54488 27.0668 9.36184 27.2989 10.48 27.4498C11.5981 27.5891 12.5415 27.6936 12.5648 27.6703C12.658 27.5891 12.3552 26.0802 12.2271 25.999C12.1688 25.9642 11.0274 25.8017 9.69961 25.6508L7.30029 25.3722L7.98747 25.0588C8.36018 24.8847 9.40843 24.3973 10.3053 23.9794C11.6214 23.3759 11.9242 23.1902 11.8893 23.0161C11.866 22.9 11.7961 22.4125 11.7146 21.925L11.5865 21.0313L11.4118 21.3795Z" fill="#272727"/>
<path d="M90.3332 21.9599C90.1934 22.6331 90.0304 23.7357 89.8557 25.0125C89.7625 25.7785 89.646 26.5329 89.6227 26.6954C89.5645 26.9624 89.5761 26.9624 89.7159 26.7767C89.9256 26.5213 90.042 26.5213 92.4763 26.8811C95.3881 27.299 101.736 28.1811 101.759 28.1579C101.759 28.1579 101.911 27.1829 102.074 25.999C102.237 24.8151 102.411 23.7357 102.446 23.608C102.505 23.3759 102.458 23.3411 101.654 23.2482C101.188 23.1902 100.792 23.1554 100.769 23.167C100.746 23.1786 100.653 23.7009 100.571 24.3277C100.268 26.4169 100.315 26.266 99.8956 26.1847C99.6859 26.1383 98.9754 26.0338 98.3115 25.9294C97.1818 25.7785 97.1002 25.7785 96.9488 25.9642C96.8091 26.1615 96.7974 26.1499 96.7858 25.883C96.7858 25.7205 96.8324 25.4071 96.8906 25.1866C96.9488 24.966 97.0304 24.4553 97.0769 24.0607L97.1585 23.3527L96.8207 23.2831C96.646 23.2482 96.25 23.1902 95.9588 23.1438L95.423 23.0741L95.2716 24.2232C95.1901 24.85 95.1086 25.3955 95.0853 25.4303C95.062 25.4651 94.3631 25.3955 93.5129 25.2794C92.1269 25.0937 91.9522 25.0821 91.7775 25.2446C91.5911 25.4071 91.5911 25.3491 91.7309 24.3509C91.9988 22.4474 92.0337 21.9715 91.9405 21.9135C91.8823 21.8787 91.5096 21.8206 91.1136 21.7742C90.4147 21.6929 90.3798 21.7046 90.3332 21.9599Z" fill="#272727"/>
<path d="M13.2753 33.7523C13.054 33.8568 11.3186 34.6925 9.43172 35.6094C7.54488 36.5263 5.62309 37.4548 5.16885 37.6638C4.24872 38.0816 3.84106 38.5111 3.84106 39.045C3.84106 39.4628 5.22708 42.3761 5.62309 42.7939C6.11227 43.3394 6.54322 43.2118 10.0956 41.4824C11.8776 40.6119 13.881 39.6369 14.5565 39.3235C16.7695 38.2673 16.8161 38.1164 15.6047 35.6674C14.9641 34.3443 14.7196 33.9612 14.4167 33.7755C13.9625 33.497 13.8111 33.497 13.2753 33.7523ZM14.44 37.3272C14.44 37.3968 13.7412 37.7798 12.9026 38.1861C12.0523 38.5923 10.3053 39.4396 9.02407 40.0547L6.70628 41.1922L6.40345 40.6467C6.04239 39.9735 5.7745 39.3583 5.83274 39.3003C5.87933 39.2539 8.40677 38.0236 11.8543 36.3754C13.1472 35.7487 13.3918 35.5862 13.3918 35.3656C13.3918 35.2148 13.6014 35.5281 13.9159 36.1549C14.2071 36.7236 14.44 37.2575 14.44 37.3272Z" fill="#272727"/>
<path d="M86.3266 35.946C86.1984 36.2594 86.0004 36.712 85.8956 36.9674C85.6976 37.4316 85.6976 37.4316 85.9306 37.2227C86.1519 37.0254 86.2334 37.0486 88.8773 38.2325C92.2433 39.7182 94.9222 40.9253 96.1335 41.4824C96.6343 41.7145 97.0653 41.8886 97.0769 41.877C97.1585 41.7726 98.9987 37.5941 98.9987 37.5129C98.9987 37.4084 97.6942 36.7933 97.4846 36.7933C97.4264 36.7933 97.3681 36.8397 97.3681 36.9093C97.3681 36.9674 97.1352 37.5245 96.844 38.1397C96.5528 38.7548 96.3199 39.3003 96.3199 39.3468C96.3199 39.6021 96.0054 39.5209 94.6194 38.8941C93.7924 38.5227 92.3365 37.8611 91.3698 37.4316C90.4147 37.0022 89.0054 36.3638 88.26 36.0272C87.5146 35.679 86.8274 35.4005 86.7342 35.4005C86.641 35.4005 86.4663 35.6442 86.3266 35.946Z" fill="#272727"/>
<path d="M81.9822 42.8519C81.6328 43.2582 81.3299 43.6064 81.295 43.6412C80.9572 43.9314 80.0022 45.2197 79.9439 45.4402C79.7809 46.0902 80.0022 46.3804 81.8191 47.8776C82.2734 48.2491 82.8674 48.7714 83.1585 49.0267C83.4614 49.2937 84.4747 50.1526 85.4181 50.9534C86.3732 51.7543 87.2817 52.5203 87.4564 52.6712C88.493 53.5881 88.9123 53.4837 90.1702 52.0445C90.7059 51.4293 91.3116 50.7445 91.5212 50.5124L91.894 50.0829L91.2883 49.5374C90.9505 49.2356 90.6361 48.9803 90.5895 48.9803C90.5429 48.9803 90.1469 49.4097 89.7043 49.932C88.6327 51.2204 88.5861 51.2552 88.26 51.0347C88.1086 50.9418 87.4913 50.4311 86.874 49.8972C82.9489 46.4848 82.1569 45.8581 81.8308 45.9393C81.5512 46.009 81.5978 45.9625 83.0304 44.2912C83.508 43.7224 83.8457 43.235 83.7875 43.1885C83.7293 43.1421 83.4381 42.8752 83.1469 42.6082L82.5995 42.1323L81.9822 42.8519Z" fill="#272727"/>
<path d="M20.1122 43.3162C20.1588 43.5368 20.0074 43.7341 19.3668 44.3376C18.5399 45.1269 16.0474 47.4598 13.683 49.6651C12.9143 50.3847 12.2271 51.0811 12.1455 51.2204C11.7728 51.882 12.0058 52.2998 13.7529 54.1105C14.7895 55.1899 14.871 55.2479 15.3252 55.2479C15.8261 55.2479 16.0474 55.1203 16.7928 54.4122C17.2703 53.948 18.3768 52.915 21.6846 49.8044L24.212 47.4482L23.6763 46.8215C23.3734 46.4733 23.1056 46.1947 23.0823 46.1947C23.0007 46.1947 22.1971 46.9375 17.3518 51.4874C16.8743 51.94 16.2337 52.532 15.9309 52.8105L15.3718 53.298L14.673 52.5668L13.9741 51.8239L14.8244 51.0115C15.2903 50.5588 16.0823 49.816 16.5948 49.3401C17.1072 48.8642 18.0274 48.0053 18.633 47.425C19.2503 46.8447 20.1472 45.9974 20.648 45.5331C21.1372 45.0805 21.5448 44.651 21.5448 44.6046C21.5448 44.5465 21.2071 44.1751 20.7994 43.7689C20.2054 43.1886 20.0656 43.0957 20.1122 43.3162Z" fill="#272727"/>
<path d="M73.9689 50.4427C73.4215 50.8489 73.2002 51.0694 73.34 51.0694C73.5496 51.0694 74.9007 52.7872 76.3682 54.9229C76.6012 55.2595 76.8341 55.5844 76.8924 55.6541C76.9506 55.7121 77.3117 56.2112 77.7077 56.7567C78.1037 57.3022 78.6394 58.0335 78.9073 58.3817C79.1636 58.7299 79.5829 59.3102 79.8158 59.6584C80.6195 60.8307 80.5263 60.7726 80.9689 60.4593C81.1785 60.32 81.493 60.0762 81.6677 59.937L81.9822 59.6932L81.5745 59.1245C81.3649 58.8111 80.9805 58.2888 80.7476 57.9522C80.503 57.6272 79.7459 56.5826 79.0587 55.6309C78.3599 54.6907 77.4747 53.472 77.0787 52.9265C76.6827 52.381 76.2518 51.7774 76.1236 51.5917C75.9839 51.3944 75.6345 50.9302 75.3433 50.5355L74.8192 49.8275L73.9689 50.4427Z" fill="#272727"/>
<path d="M28.8942 51.3248C29.0107 51.5918 28.9641 51.7194 28.5797 52.381C28.1022 53.1935 27.8925 53.5533 25.8776 57.1049C25.1787 58.3469 24.4683 59.6004 24.3052 59.8905C23.7112 60.9119 23.1754 61.9101 23.2104 61.9217C23.222 61.9333 23.4433 62.061 23.6995 62.2119C23.9558 62.3628 24.2703 62.5601 24.41 62.6413C24.643 62.7922 24.6896 62.7342 25.3884 61.4923C25.796 60.7727 26.3085 59.8789 26.5415 59.5075C26.8792 58.9272 26.9258 58.7879 26.8093 58.6022C26.7278 58.4861 26.6929 58.3817 26.7278 58.3817C26.8792 58.3817 28.0672 59.1129 28.0207 59.1709C27.9508 59.3102 26.5531 63.6279 26.5531 63.7324C26.5531 63.802 27.8692 64.6493 27.9974 64.6493C28.009 64.6493 28.3584 63.6047 28.7661 62.328L29.5231 60.0182L29.9541 60.0763C30.3152 60.1459 30.42 60.0995 30.6879 59.8209C30.8509 59.6468 31.1538 59.1825 31.3634 58.7995C31.5731 58.4049 32.1438 57.3835 32.6329 56.5246C33.1221 55.6657 33.5531 54.8416 33.588 54.7024C33.7394 54.2033 33.3784 53.681 32.5864 53.2283C32.1904 52.9962 31.7711 52.7524 31.6779 52.6944C31.5847 52.6364 31.0023 52.3114 30.3967 51.9864C29.791 51.6498 29.1737 51.3016 29.0223 51.2087C28.7661 51.0346 28.7544 51.0462 28.8942 51.3248ZM30.6646 54.122L31.6779 54.6907L31.3168 55.3407C31.1072 55.7121 30.9092 56.0487 30.8626 56.1184C30.816 56.1764 30.583 56.5942 30.3384 57.0469C30.0939 57.488 29.8609 57.9058 29.8143 57.9522C29.7677 58.0103 29.4649 57.8826 29.1271 57.6969C28.7894 57.4996 28.4865 57.3371 28.44 57.3371C28.3934 57.3371 28.2652 57.2558 28.1488 57.163C27.9391 57.0121 27.9624 56.9541 28.5215 56.0139C29.5115 54.3425 29.6979 53.9363 29.5581 53.6926C29.4183 53.4372 29.3834 53.4256 30.6646 54.122Z" fill="#272727"/>
<path d="M67.2368 54.3426C66.899 54.4703 66.6195 54.6328 66.6195 54.7024C66.6195 54.7604 67.0388 55.8515 67.5513 57.1166C68.0637 58.3933 68.483 59.4495 68.483 59.4728C68.483 59.5076 68.285 59.5888 68.0521 59.6701C67.8075 59.7397 67.3882 59.9138 67.1087 60.0415C66.8408 60.1692 66.5846 60.2388 66.5496 60.204C66.5147 60.1808 66.0837 59.113 65.5712 57.8478C64.523 55.2015 64.6861 55.3408 63.3117 55.8979C62.6827 56.1649 62.5663 56.2461 62.7876 56.2693C63.0322 56.3041 63.1486 56.4898 63.6378 57.7201C63.9523 58.4978 64.2784 59.2871 64.3599 59.4844C64.4415 59.6701 64.7559 60.4593 65.0471 61.2254C65.3383 61.9914 65.6295 62.7226 65.6877 62.8503C65.746 62.978 66.1653 64.0226 66.6195 65.1717C67.0854 66.3207 67.4697 67.2841 67.5047 67.3073C67.5629 67.3653 68.9373 66.843 69.0188 66.7269C69.0421 66.6689 68.6694 65.6127 68.1802 64.3708C67.4464 62.5253 67.2368 62.0959 67.0388 62.0727C66.8757 62.0494 67.0388 61.9334 67.5513 61.7361C67.9706 61.562 68.5063 61.3414 68.7393 61.237C69.1586 61.0629 69.1702 61.0629 69.2518 61.3182C69.4148 61.8521 70.9639 65.752 71.0571 65.8564C71.1037 65.9145 71.3716 65.8564 71.6744 65.7056C71.9656 65.5779 72.2451 65.4618 72.2917 65.4618C72.7343 65.4502 72.6644 65.2065 71.3366 61.9102C70.5912 60.0647 69.8225 58.1496 69.6361 57.6621C69.4614 57.163 69.2052 56.5363 69.0887 56.2693C68.9606 55.9908 68.716 55.3872 68.5413 54.9229C68.1919 53.9828 68.1686 53.9712 67.2368 54.3426Z" fill="#272727"/>
<path d="M39.4699 56.3737L39.7378 56.5943L39.5048 62.5601C39.3767 65.8448 39.2952 68.5724 39.3417 68.6072C39.3883 68.642 39.7378 68.7465 40.1221 68.8277C40.5065 68.8974 40.9258 68.9902 41.0655 69.025C41.2752 69.0715 41.3451 68.9786 41.578 68.3983C41.7294 68.0269 41.9158 67.5626 41.9973 67.3769C42.0788 67.1796 42.8592 65.2297 43.7327 63.0244C44.6063 60.8191 45.4216 58.8111 45.5264 58.5558C45.969 57.5924 45.969 57.6041 45.2818 57.4648C44.9441 57.3835 44.5597 57.3023 44.4199 57.2675C44.2219 57.221 44.1404 57.2675 44.0822 57.4764C43.989 57.7549 42.2652 62.1191 41.9973 62.7342C41.9158 62.9199 41.7294 63.3958 41.578 63.7788C41.2169 64.7306 41.1121 64.7886 41.182 64.0574C41.2752 62.8271 41.4732 56.7336 41.4149 56.6755C41.38 56.6407 40.9957 56.5478 40.5647 56.455C40.1338 56.3621 39.6446 56.2693 39.4932 56.2229L39.202 56.1648L39.4699 56.3737Z" fill="#272727"/>
<path d="M53.8658 57.6853C52.6545 57.8014 51.6295 57.9058 51.5946 57.9174C51.5597 57.929 51.6412 57.9755 51.7693 58.0219C52.0488 58.138 52.1071 58.5674 52.6545 65.2645L53.0505 70L53.924 69.9188C54.4016 69.8839 55.5081 69.7911 56.37 69.7214L57.9307 69.5822L57.9074 69.0018C57.8492 67.8063 57.8492 67.8063 57.0921 67.9108C56.731 67.9572 56.0322 68.0269 55.543 68.0617L54.6695 68.1429L54.5064 66.518C54.3666 65.0555 54.3317 64.8931 54.1104 64.8118C53.9473 64.7654 54.157 64.7073 54.7393 64.6493C55.2169 64.6029 55.8808 64.5216 56.2069 64.4868L56.8125 64.394L56.7543 63.686C56.6844 62.7226 56.6495 62.6646 56.3467 62.7226C56.1952 62.7574 55.6478 62.8155 55.1354 62.8503L54.1919 62.9199L54.1104 61.9566C53.9473 59.9718 53.9007 59.6584 53.7377 59.6584C53.6445 59.6584 53.5746 59.612 53.5746 59.5656C53.5746 59.5075 54.3433 59.4031 55.2868 59.3334C56.2302 59.2522 56.9989 59.1826 57.0106 59.1593C57.0222 59.1477 57.0106 58.7531 56.9756 58.2888L56.929 57.4532L56.4981 57.4648C56.2651 57.4764 55.0888 57.5808 53.8658 57.6853Z" fill="#272727"/>
</svg>
