<svg width="18" height="18" viewBox="0 0 18 18" fill="none" xmlns="http://www.w3.org/2000/svg">
<path d="M0.129353 2.78081C-0.161647 1.98431 0.0573533 1.10231 0.688103 0.534561C1.31735 -0.0309392 2.2136 -0.158439 2.9741 0.211311L16.5416 6.54431C17.2691 6.88481 17.7896 7.50656 18.0004 8.24906H3.03635L0.172103 2.87606C0.156353 2.84531 0.142103 2.81306 0.129353 2.78081ZM3.04685 9.74981L0.232103 15.1311C0.216353 15.1611 0.202853 15.1911 0.191603 15.2226C-0.0986467 16.0198 0.122603 16.9003 0.753353 17.4673C1.1441 17.8176 1.6376 17.9983 2.1341 17.9983C2.44085 17.9983 2.74835 17.9293 3.03485 17.7891L16.5431 11.4606C17.2729 11.1186 17.7926 10.4946 18.0019 9.75056H3.04685V9.74981Z"/>
</svg>
