<svg width="22" height="24" viewBox="0 0 22 24" fill="none" xmlns="http://www.w3.org/2000/svg">
<path d="M9.68046 23.9999C7.25361 24.0031 4.92228 23.0545 3.18708 21.3579C-0.44376 17.5848 -0.372861 11.5956 3.34631 7.90959L9.18067 2.07622C11.5645 -0.376222 15.3918 -0.695289 18.1488 1.3286C21.0861 3.58365 21.6391 7.79283 19.384 10.7301C19.2079 10.9595 19.0171 11.1773 18.8129 11.3821L12.7075 17.4874C12.0203 18.2059 11.1084 18.668 10.1228 18.7974C8.78679 18.9438 7.46418 18.4243 6.58492 17.4078C5.2369 15.681 5.38101 13.2217 6.92146 11.6641L11.5759 7.0138C12.1661 6.42375 13.1229 6.42375 13.7131 7.0138C14.3032 7.60403 14.3032 8.56081 13.7131 9.15105L8.91564 13.9496C8.49351 14.372 8.49374 15.0566 8.91616 15.4787C9.33857 15.9008 10.0232 15.9006 10.4453 15.4782L16.6061 9.31835C17.8709 8.08851 18.1048 6.14233 17.1674 4.64784C16.0604 2.94268 13.7808 2.45773 12.0756 3.56471C11.8621 3.7033 11.6636 3.86366 11.4831 4.04324L5.40293 10.1285C3.10475 12.36 2.80619 15.9454 4.70363 18.5264C6.8141 21.275 10.7532 21.7923 13.5018 19.6819C13.7166 19.517 13.9205 19.3383 14.1122 19.1471L18.9106 14.3496C19.5009 13.7595 20.4576 13.7595 21.0479 14.3496C21.6379 14.9398 21.6379 15.8966 21.0479 16.4868L16.2494 21.2843C14.5083 23.0275 12.1442 24.0049 9.68046 23.9999Z"/>
</svg>
