<svg width="16" height="16" viewBox="0 0 16 16" fill="none" xmlns="http://www.w3.org/2000/svg">
<g clip-path="url(#clip0_6878_3788)">
<path d="M0 6.66667V12.6667C0 14.5047 1.49533 16 3.33333 16H12.6667C14.5047 16 16 14.5047 16 12.6667V6.66667H0ZM10 12H6C5.632 12 5.33333 11.7013 5.33333 11.3333C5.33333 10.9653 5.632 10.6667 6 10.6667H10C10.368 10.6667 10.6667 10.9653 10.6667 11.3333C10.6667 11.7013 10.368 12 10 12ZM0 5.33333V4.66667C0 2.82867 1.49533 1.33333 3.33333 1.33333H4V0.666667C4 0.298667 4.29867 0 4.66667 0C5.03467 0 5.33333 0.298667 5.33333 0.666667V1.33333H10.6667V0.666667C10.6667 0.298667 10.9653 0 11.3333 0C11.7013 0 12 0.298667 12 0.666667V1.33333H12.6667C14.5047 1.33333 16 2.82867 16 4.66667V5.33333H0Z" fill="black"/>
</g>
<defs>
<clipPath id="clip0_6878_3788">
<rect width="16" height="16" fill="white"/>
</clipPath>
</defs>
</svg>
