<svg width="20" height="20" viewBox="0 0 20 20" fill="none" xmlns="http://www.w3.org/2000/svg">
<path d="M16.9667 12.7775C17.1467 12.7309 17.3067 12.6259 17.42 12.4792C17.54 12.3225 18.1592 11.3909 18.5009 8.35754C18.77 5.98921 18.245 3.89587 18.2225 3.80837C18.1425 3.49587 17.8892 3.25671 17.5725 3.19587C17.46 3.17421 14.7784 2.66337 11.6234 2.66337C9.29754 2.66337 6.79088 2.94087 5.58921 3.09337C5.27254 2.10837 4.97921 1.57921 4.96504 1.55254C4.87754 1.39671 4.74338 1.27421 4.58171 1.20087C4.47088 1.15004 3.45504 0.714206 2.15838 0.865873C1.70171 0.920039 1.37504 1.33587 1.42921 1.79337C1.48338 2.25004 1.88588 2.57837 2.35671 2.52254C2.88671 2.46004 3.35921 2.55337 3.63588 2.63254C3.76421 2.92254 3.97254 3.44504 4.17254 4.18337C4.17421 4.18837 4.51838 6.35337 4.74504 8.35837C5.02838 10.8667 5.28838 11.8534 5.39088 12.1717C5.74088 14.4492 6.24255 15.2142 6.34088 15.345C6.45504 15.4975 6.61754 15.6067 6.80171 15.6534C6.88838 15.675 8.95754 16.1959 12.145 16.1959C15.3325 16.1959 17.4025 15.675 17.4884 15.6534C17.935 15.5392 18.2034 15.085 18.0892 14.6384C17.975 14.1909 17.52 13.9225 17.0742 14.0375C17.0559 14.0425 15.1234 14.5275 12.1442 14.5275C9.92088 14.5275 8.26754 14.2542 7.57254 14.115C7.48754 13.9042 7.36588 13.5484 7.24088 13C8.24338 13.1484 9.79171 13.3192 11.6209 13.3192C14.8084 13.3192 16.8784 12.7984 16.9642 12.7767L16.9667 12.7775Z"/>
<path d="M8.75746 19.1668C9.43953 19.1668 9.99246 18.6138 9.99246 17.9318C9.99246 17.2497 9.43953 16.6968 8.75746 16.6968C8.07539 16.6968 7.52246 17.2497 7.52246 17.9318C7.52246 18.6138 8.07539 19.1668 8.75746 19.1668Z" fill="#B8B8B8"/>
<path d="M14.7291 19.1668C15.4112 19.1668 15.9641 18.6138 15.9641 17.9318C15.9641 17.2497 15.4112 16.6968 14.7291 16.6968C14.0471 16.6968 13.4941 17.2497 13.4941 17.9318C13.4941 18.6138 14.0471 19.1668 14.7291 19.1668Z" fill="#B8B8B8"/>
</svg>
