<svg width="40" height="40" viewBox="0 0 40 40" fill="none" xmlns="http://www.w3.org/2000/svg">
<path d="M33.3333 0H6.66667C2.98333 0 0 2.98333 0 6.66667V26.6667C0 30.35 2.98333 33.3333 6.66667 33.3333H11.5333L17.7833 38.6C18.4167 39.1667 19.2167 39.45 20.0167 39.45C20.8167 39.45 21.5667 39.1833 22.1667 38.6333L28.5833 33.3333H33.3333C37.0167 33.3333 40 30.35 40 26.6667V6.66667C40 2.98333 37.0167 0 33.3333 0ZM28.6167 16.0333L25 18.9833L26.5 23.5333C26.7 24.15 26.5 24.8333 25.9833 25.2167C25.4667 25.6167 24.7667 25.6333 24.2167 25.2833L20.0167 22.55L15.8833 25.3167C15.6333 25.4833 15.3333 25.5667 15.0333 25.5667C14.7167 25.5667 14.3833 25.4667 14.1167 25.2667C13.6 24.8833 13.3833 24.2 13.5833 23.5833L15.0167 18.9833L11.3833 16.0333C10.9 15.6167 10.7167 14.95 10.9333 14.35C11.15 13.75 11.7333 13.35 12.3667 13.35H16.95L18.5667 9C18.7833 8.4 19.3667 8 20 8C20.6333 8 21.2167 8.4 21.4333 9L23.05 13.35H27.6333C28.2667 13.35 28.85 13.75 29.0667 14.35C29.2833 14.95 29.1 15.6333 28.6167 16.05V16.0333Z"/>
</svg>
