<svg width="24" height="24" viewBox="0 0 24 24" fill="none" xmlns="http://www.w3.org/2000/svg">
<g clip-path="url(#clip0_683_10083)">
<path d="M12 -0.118164C5.383 -0.118164 0 5.26484 0 11.8818C0 18.4988 5.383 23.8818 12 23.8818C18.617 23.8818 24 18.4988 24 11.8818C24 5.26484 18.617 -0.118164 12 -0.118164ZM16 12.8818H12C11.448 12.8818 11 12.4348 11 11.8818V5.88184C11 5.32884 11.448 4.88184 12 4.88184C12.552 4.88184 13 5.32884 13 5.88184V10.8818H16C16.553 10.8818 17 11.3288 17 11.8818C17 12.4348 16.553 12.8818 16 12.8818Z"/>
</g>
<defs>
<clipPath id="clip0_683_10083">
<rect width="24" height="24" fill="white" transform="translate(-0.000488281)"/>
</clipPath>
</defs>
</svg>
