<svg width="24" height="24" viewBox="0 0 24 24" fill="none" xmlns="http://www.w3.org/2000/svg">
<g clip-path="url(#clip0_683_10057)">
<path d="M12.1564 23.7717H12.0995C6.6199 23.7717 2.16089 19.2877 2.16089 13.7762C2.16089 11.848 2.82659 9.708 4.03405 7.74787C4.50484 6.98321 5.40644 6.62237 6.27406 6.85227C7.14267 7.08117 7.7474 7.83883 7.77838 8.73643C7.87434 11.4752 8.53105 14.7478 11.1149 14.7767C12.1954 14.7857 13.051 14.0301 13.141 13.0505C13.235 12.025 12.8641 11.2213 12.3953 10.2048C11.8436 9.00531 11.1559 7.51398 11.1559 5.30596C11.1559 3.59972 11.5007 1.89548 11.8426 0.962898C12.0975 0.270207 12.6982 -0.18459 13.4119 -0.225572C14.1505 -0.265554 14.8252 0.141265 15.1641 0.815964C15.9657 2.41025 17.1012 3.8836 18.1987 5.30896C20.1699 7.86982 22.208 10.5176 22.153 13.7922C22.153 19.2537 17.672 23.7377 12.1634 23.7707H12.1574L12.1564 23.7717Z"/>
</g>
<defs>
<clipPath id="clip0_683_10057">
<rect width="24" height="24" fill="white" transform="translate(-0.000488281)"/>
</clipPath>
</defs>
</svg>
