<svg width="25" height="24" viewBox="0 0 25 24" fill="none" xmlns="http://www.w3.org/2000/svg">
<g clip-path="url(#clip0_683_10547)">
<path d="M14.5255 6.48C13.7125 7.293 13.2555 8.395 13.2555 9.545V11H14.7105C15.8605 11 16.9625 10.543 17.7755 9.73L23.5825 3.923C24.4795 3.026 24.4795 1.57 23.5825 0.673C22.6855 -0.224 21.2295 -0.224 20.3325 0.673L14.5255 6.48ZM3.25549 1.5V5H2.75549C1.37449 5 0.255493 3.881 0.255493 2.5V1.5C0.255493 0.672 0.927493 0 1.75549 0C2.58349 0 3.25549 0.672 3.25549 1.5ZM24.2475 21.168C24.2335 21.324 24.2175 21.443 24.2005 21.5C23.7705 22.946 22.4305 24 20.8455 24H11.4955C11.9755 23.284 12.2555 22.424 12.2555 21.5C12.2555 20.119 13.3745 19 14.7555 19H22.2535C23.4235 19 24.3525 20.003 24.2465 21.168H24.2475ZM20.2555 10.078V17H14.7565C12.2685 17 10.2595 19.017 10.2555 21.505C10.2525 22.985 8.96349 24.164 7.44549 23.982C6.16649 23.828 5.25549 22.647 5.25549 21.358V1.5C5.25549 0.964 5.13349 0.455 4.91749 0H16.2555C16.8215 0 17.3575 0.12 17.8455 0.332L13.1115 5.066C11.9155 6.262 11.2565 7.853 11.2565 9.545V13H14.7115C16.4025 13 17.9935 12.341 19.1905 11.145L20.2565 10.079L20.2555 10.078Z"/>
</g>
<defs>
<clipPath id="clip0_683_10547">
<rect width="24" height="24" fill="white" transform="translate(0.255493)"/>
</clipPath>
</defs>
</svg>
