<svg width="24" height="25" viewBox="0 0 24 25" fill="none" xmlns="http://www.w3.org/2000/svg">
<g clip-path="url(#clip0_4339_4583)">
<path d="M5.31991 15.0002L1.42991 18.1902C-0.440088 14.7002 -0.480088 10.5102 1.33991 6.99023H1.35991L5.23991 10.1702H5.24991V10.1902C4.70991 11.7602 4.73991 13.4502 5.31991 15.0002Z" fill="#FBBB00"/>
<path d="M19.51 21.8598L15.6 18.6598C17.02 17.8298 18.1 16.5398 18.68 15.0098H12.26V10.2598H23.79C24.62 14.6198 22.97 19.0798 19.51 21.8598Z" fill="#518EF8"/>
<path d="M19.5099 21.8598C14.3399 25.9998 6.78993 25.1798 2.63993 20.0198C2.17993 19.4498 1.76993 18.8398 1.42993 18.1898L5.31993 15.0098C6.69993 18.6998 10.8199 20.5698 14.5099 19.1798C14.8899 19.0398 15.2499 18.8698 15.5999 18.6598L19.5099 21.8598Z" fill="#28B446"/>
<path d="M19.6601 3.27L15.7701 6.45C12.4201 4.36 8.02009 5.39 5.94009 8.73C5.66009 9.19 5.42009 9.67 5.25009 10.18H5.24009L1.36009 6.99H1.34009C3.48009 2.86 7.66009 0.5 12.0101 0.5C13.8701 0.5 15.7501 0.94 17.5201 1.85C18.2801 2.24 19.0001 2.72 19.6601 3.27Z" fill="#F14336"/>
</g>
<defs>
<clipPath id="clip0_4339_4583">
<rect width="24" height="24" fill="white" transform="translate(0 0.5)"/>
</clipPath>
</defs>
</svg>
