<svg width="20" height="20" viewBox="0 0 20 20" fill="none" xmlns="http://www.w3.org/2000/svg">
<g clip-path="url(#clip0_6367_1670)">
<path d="M13.7926 10C15.7135 8.43134 17.0147 6.23141 17.4643 3.7925C17.5329 3.32555 17.5 2.84932 17.368 2.39621C17.236 1.94309 17.0079 1.52373 16.6993 1.16667C16.3858 0.801615 15.9973 0.508434 15.5603 0.307104C15.1233 0.105773 14.648 0.00102587 14.1668 0L5.83765 0C5.35574 0.000261535 4.87959 0.104646 4.44177 0.306008C4.00395 0.50737 3.61481 0.800955 3.30098 1.16667C2.99157 1.5244 2.76311 1.94475 2.63122 2.39896C2.49933 2.85318 2.46712 3.33052 2.53682 3.79833C2.98424 6.23542 4.28429 8.43377 6.20432 10C4.28426 11.5668 2.98449 13.7658 2.53765 16.2033C2.46809 16.6708 2.50029 17.1478 2.63203 17.6017C2.76377 18.0556 2.99195 18.4757 3.30098 18.8333C3.61481 19.199 4.00395 19.4926 4.44177 19.694C4.87959 19.8954 5.35574 19.9997 5.83765 20H14.1668C14.6487 19.9996 15.1248 19.8951 15.5626 19.6938C16.0004 19.4924 16.3895 19.1989 16.7035 18.8333C17.0126 18.4757 17.241 18.0557 17.373 17.6018C17.505 17.1479 17.5376 16.6709 17.4685 16.2033C17.0168 13.7654 15.7142 11.567 13.7926 10ZM14.8568 17.1325C14.7806 17.2455 14.6779 17.3381 14.5576 17.4022C14.4373 17.4663 14.3031 17.4998 14.1668 17.5H5.83348C5.69706 17.5001 5.56271 17.4667 5.44222 17.4027C5.32172 17.3387 5.21878 17.2461 5.14243 17.1331C5.06607 17.02 5.01864 16.89 5.00429 16.7543C4.98995 16.6186 5.00913 16.4815 5.06015 16.355C5.92661 14.4899 7.24405 12.87 8.89348 11.6417L9.47681 11.1758C9.62428 11.0585 9.80714 10.9947 9.99556 10.9947C10.184 10.9947 10.3669 11.0585 10.5143 11.1758L11.0893 11.635C12.7386 12.8677 14.0582 14.4884 14.931 16.3533C14.9834 16.4794 15.004 16.6163 14.9911 16.7522C14.9781 16.888 14.932 17.0186 14.8568 17.1325ZM12.791 15.8333H7.20765C7.95639 14.7323 8.87665 13.7583 9.93348 12.9483L10.0001 12.8933L10.0593 12.9392C11.1157 13.755 12.0375 14.7316 12.791 15.8333Z" fill="#747474"/>
</g>
<defs>
<clipPath id="clip0_6367_1670">
<rect width="20" height="20" fill="white"/>
</clipPath>
</defs>
</svg>
