<svg width="25" height="24" viewBox="0 0 25 24" fill="none" xmlns="http://www.w3.org/2000/svg">
<g clip-path="url(#clip0_753_12728)">
<path d="M23.9792 10.4876L22.3478 8.59231C22.0359 8.23245 21.784 7.56072 21.784 7.08091V5.04172C21.784 3.77023 20.7405 2.72665 19.469 2.72665H17.4298C16.962 2.72665 16.2782 2.47475 15.9184 2.16287L14.0231 0.531521C13.1955 -0.176197 11.84 -0.176197 11.0003 0.531521L9.11705 2.17487C8.75719 2.47475 8.07347 2.72665 7.60565 2.72665H5.53048C4.25899 2.72665 3.2154 3.77023 3.2154 5.04172V7.09291C3.2154 7.56072 2.9635 8.23245 2.66362 8.59231L1.04427 10.4996C0.348546 11.3272 0.348546 12.6707 1.04427 13.4984L2.66362 15.4056C2.9635 15.7655 3.2154 16.4372 3.2154 16.905V18.9562C3.2154 20.2277 4.25899 21.2713 5.53048 21.2713H7.60565C8.07347 21.2713 8.75719 21.5232 9.11705 21.835L11.0123 23.4664C11.84 24.1741 13.1955 24.1741 14.0351 23.4664L15.9304 21.835C16.2902 21.5232 16.962 21.2713 17.4418 21.2713H19.481C20.7525 21.2713 21.796 20.2277 21.796 18.9562V16.917C21.796 16.4492 22.0479 15.7655 22.3598 15.4056L23.9912 13.5104C24.6869 12.6827 24.6869 11.3152 23.9792 10.4876ZM17.5018 9.73186L11.7081 15.5256C11.5401 15.6935 11.3122 15.7894 11.0723 15.7894C10.8324 15.7894 10.6045 15.6935 10.4366 15.5256L7.53368 12.6227C7.18582 12.2749 7.18582 11.6991 7.53368 11.3512C7.88154 11.0034 8.45731 11.0034 8.80517 11.3512L11.0723 13.6183L16.2303 8.46036C16.5781 8.1125 17.1539 8.1125 17.5018 8.46036C17.8496 8.80822 17.8496 9.38399 17.5018 9.73186Z" fill="#0066FF"/>
</g>
<defs>
<clipPath id="clip0_753_12728">
<rect width="24" height="24" fill="white" transform="translate(0.511475 0.000610352)"/>
</clipPath>
</defs>
</svg>
