<svg width="24" height="24" viewBox="0 0 24 24" fill="none" xmlns="http://www.w3.org/2000/svg">
<g clip-path="url(#clip0_435_3550)">
<path d="M18.5005 1H5.50049C2.46749 1 0.000488281 3.467 0.000488281 6.5V17.5C0.000488281 20.533 2.46749 23 5.50049 23H18.5005C21.5335 23 24.0005 20.533 24.0005 17.5V6.5C24.0005 3.467 21.5335 1 18.5005 1ZM21.0005 7H17.1215L19.7725 4.349C20.5065 4.785 21.0005 5.586 21.0005 6.5V7ZM9.12149 7L12.1215 4H15.8795L12.8795 7H9.12149ZM5.50049 4H7.87949L4.87949 7H3.00049V6.5C3.00049 5.122 4.12249 4 5.50049 4ZM18.5005 20H5.50049C4.12249 20 3.00049 18.878 3.00049 17.5V10H21.0005V17.5C21.0005 18.878 19.8785 20 18.5005 20ZM15.0475 15.8L10.4135 18.28C9.79149 18.653 9.00049 18.205 9.00049 17.48V12.519C9.00049 11.794 9.79149 11.346 10.4135 11.719L15.0475 14.199C15.6515 14.561 15.6515 15.437 15.0475 15.799V15.8Z" fill="#0066FF"/>
</g>
<defs>
<clipPath id="clip0_435_3550">
<rect width="24" height="24" fill="white" transform="translate(0.000488281)"/>
</clipPath>
</defs>
</svg>
