<svg width="25" height="24" viewBox="0 0 25 24" fill="none" xmlns="http://www.w3.org/2000/svg">
<path d="M13.59 18.4286L13.59 7.71429L17.1567 11.2393C17.2575 11.3397 17.3774 11.4194 17.5095 11.4738C17.6416 11.5282 17.7833 11.5562 17.9264 11.5562C18.0696 11.5562 18.2113 11.5282 18.3434 11.4738C18.4755 11.4194 18.5954 11.3397 18.6962 11.2393C18.8981 11.0385 19.0114 10.767 19.0114 10.4839C19.0114 10.2009 18.8981 9.92932 18.6962 9.72857L14.0345 5.13214C13.6297 4.72973 13.08 4.50239 12.5059 4.5C11.9355 4.50521 11.3902 4.73233 10.9881 5.13214L6.32642 9.72857C6.22605 9.82847 6.14657 9.94693 6.09252 10.0772C6.03848 10.2074 6.01092 10.3469 6.01142 10.4877C6.01192 10.6285 6.04048 10.7678 6.09546 10.8977C6.15043 11.0275 6.23076 11.1454 6.33184 11.2446C6.43292 11.3438 6.55278 11.4224 6.68458 11.4758C6.81637 11.5292 6.95752 11.5564 7.09997 11.556C7.24242 11.5555 7.38337 11.5272 7.51478 11.4729C7.64619 11.4186 7.76549 11.3392 7.86586 11.2393L11.4218 7.71429L11.4218 18.4286C11.4218 18.7127 11.536 18.9853 11.7393 19.1862C11.9426 19.3871 12.2183 19.5 12.5059 19.5C12.7934 19.5 13.0691 19.3871 13.2725 19.1862C13.4758 18.9853 13.59 18.7127 13.59 18.4286Z" fill="#0066FF"/>
</svg>
