<svg width="24" height="24" viewBox="0 0 24 24" fill="none" xmlns="http://www.w3.org/2000/svg">
<g clip-path="url(#clip0_482_4254)">
<path d="M12.0002 24C5.38324 24 0.000244141 18.617 0.000244141 12C0.000244141 5.383 5.38324 0 12.0002 0C18.6172 0 24.0002 5.383 24.0002 12C24.0002 18.617 18.6172 24 12.0002 24ZM12.0002 3C7.03824 3 3.00024 7.037 3.00024 12C3.00024 16.963 7.03824 21 12.0002 21C16.9622 21 21.0002 16.963 21.0002 12C21.0002 7.037 16.9632 3 12.0002 3ZM17.0002 12.5C17.0002 11.672 16.3282 11 15.5002 11H13.0002V6.5C13.0002 5.672 12.3292 5 11.5002 5C10.6712 5 10.0002 5.672 10.0002 6.5V12.5C10.0002 13.328 10.6712 14 11.5002 14H15.5002C16.3282 14 17.0002 13.328 17.0002 12.5Z" fill="#0066FF"/>
</g>
<defs>
<clipPath id="clip0_482_4254">
<rect width="24" height="24" fill="white" transform="translate(0.000244141)"/>
</clipPath>
</defs>
</svg>
