<svg width="24" height="24" viewBox="0 0 24 24" fill="none" xmlns="http://www.w3.org/2000/svg">
<g clip-path="url(#clip0_681_6493)">
<path d="M12.0027 15.6272C14.006 15.6272 15.6299 14.0033 15.6299 12C15.6299 9.99676 14.006 8.3728 12.0027 8.3728C9.99945 8.3728 8.37549 9.99676 8.37549 12C8.37549 14.0033 9.99945 15.6272 12.0027 15.6272Z" fill="#0066FF"/>
<path d="M19.2826 0.00761658C17.9533 -0.0652191 16.6751 0.386362 15.6882 1.27496C14.2715 2.54594 12.8731 4.64361 12.1775 6.19137C12.0719 6.42808 12.2394 6.69393 12.498 6.70122C13.7143 6.74492 14.9197 7.23292 15.8448 8.15793C15.9613 8.27447 16.0705 8.39829 16.1762 8.52211C17.1485 9.70569 18.7254 10.2337 20.2076 9.82951C20.2404 9.81858 20.2768 9.8113 20.3096 9.80037C20.987 9.60008 21.6716 9.23954 22.3417 8.68235C22.4255 8.61315 22.5056 8.54396 22.5784 8.47476C22.5857 8.46748 22.5893 8.46384 22.5966 8.45656C23.376 7.65536 23.8312 6.65751 23.9623 5.62689C23.9732 5.49943 23.9805 5.37561 23.9878 5.2445C24.0169 4.68731 23.955 4.1374 23.8057 3.61298C23.7948 3.58021 23.7875 3.55107 23.7766 3.5183C23.569 2.83364 23.2121 2.19633 22.7168 1.65006C21.8318 0.663138 20.6118 0.0768105 19.2826 0.00761658Z" fill="#0066FF"/>
<path d="M4.71552 23.9923C6.04477 24.0652 7.32303 23.6136 8.30996 22.725C9.72661 21.454 11.1251 19.3563 11.8206 17.8086C11.9262 17.5719 11.7587 17.306 11.5002 17.2987C10.2838 17.255 9.07837 16.7707 8.15336 15.842C8.03682 15.7255 7.92757 15.6017 7.82196 15.4778C6.8496 14.2943 5.27271 13.7662 3.7905 14.1704C3.75773 14.1814 3.72131 14.1886 3.68853 14.1996C3.01116 14.3999 2.32651 14.7604 1.65642 15.3176C1.57266 15.3868 1.49254 15.456 1.4197 15.5252C1.41242 15.5325 1.40878 15.5361 1.40149 15.5434C0.622153 16.3446 0.16693 17.3424 0.035826 18.3731C0.0249007 18.5005 0.0176172 18.6243 0.0103336 18.7554C-0.0188006 19.3126 0.0431097 19.8625 0.192423 20.387C0.203348 20.4197 0.210632 20.4489 0.221557 20.4816C0.429139 21.1663 0.786033 21.8036 1.28132 22.3499C2.16627 23.3368 3.38627 23.9231 4.71552 23.9923Z" fill="#0066FF"/>
<path d="M0.00664001 4.71646C-0.0661957 6.04572 0.385386 7.32398 1.27398 8.31091C2.54496 9.72756 4.64263 11.126 6.19039 11.8216C6.4271 11.9272 6.69296 11.7597 6.70024 11.5011C6.74394 10.2848 7.23194 9.07932 8.15695 8.15431C8.27349 8.03777 8.39731 7.92852 8.52113 7.82291C9.70471 6.85055 10.2328 5.27366 9.82853 3.79145C9.81761 3.75868 9.81032 3.72226 9.7994 3.68948C9.5991 3.01211 9.23856 2.32745 8.68137 1.65737C8.61217 1.5736 8.54298 1.49349 8.47379 1.42065C8.4665 1.41337 8.46286 1.40972 8.45558 1.40244C7.65439 0.623099 6.65654 0.167876 5.62591 0.036772C5.49845 0.0258467 5.37463 0.0185632 5.24353 0.0112797C4.68633 -0.0178546 4.13642 0.0440557 3.61201 0.193369C3.57923 0.204294 3.5501 0.211578 3.51732 0.222503C2.83266 0.430085 2.19535 0.786979 1.64908 1.28226C0.662161 2.16722 0.0758339 3.38721 0.00664001 4.71646Z" fill="#0066FF"/>
<path d="M23.9914 19.2836C24.0642 17.9543 23.6127 16.6761 22.7241 15.6891C21.4531 14.2725 19.3554 12.874 17.8077 12.1785C17.5709 12.0728 17.3051 12.2404 17.2978 12.4989C17.2541 13.7153 16.7698 14.9207 15.8411 15.8457C15.7246 15.9623 15.6007 16.0715 15.4769 16.1771C14.2933 17.1495 13.7653 18.7264 14.1695 20.2086C14.1804 20.2414 14.1877 20.2778 14.1987 20.3106C14.399 20.9879 14.7595 21.6726 15.3167 22.3427C15.3859 22.4264 15.4551 22.5066 15.5243 22.5794C15.5315 22.5867 15.5352 22.5903 15.5425 22.5976C16.3437 23.3769 17.3415 23.8322 18.3721 23.9633C18.4996 23.9742 18.6234 23.9815 18.7545 23.9888C19.3117 24.0179 19.8616 23.956 20.386 23.8067C20.4188 23.7957 20.448 23.7885 20.4807 23.7775C21.1654 23.57 21.8027 23.2131 22.349 22.7178C23.3359 21.8328 23.9222 20.6128 23.9914 19.2836Z" fill="#0066FF"/>
</g>
<defs>
<clipPath id="clip0_681_6493">
<rect width="24" height="24" fill="white" transform="translate(-0.000488281)"/>
</clipPath>
</defs>
</svg>
