<svg width="24" height="24" viewBox="0 0 24 24" fill="none" xmlns="http://www.w3.org/2000/svg">
<g clip-path="url(#clip0_184_2852)">
<path d="M16.4815 12.475C16.4815 14.354 14.1165 16.638 12.8155 17.7C12.3265 18.099 11.6365 18.099 11.1475 17.7C9.84649 16.638 7.48149 14.354 7.48149 12.475C7.48149 11.108 8.48849 10 9.73149 10C10.9745 10 11.9815 11.108 11.9815 12.475C11.9815 11.108 12.9885 10 14.2315 10C15.4745 10 16.4815 11.108 16.4815 12.475ZM24.0005 9.88601V18.5C24.0005 21.533 21.5325 24 18.5005 24H5.50049C2.46849 24 0.000488281 21.533 0.000488281 18.5V9.88601C0.000488281 8.05501 0.906488 6.35001 2.42449 5.32601L8.92449 0.941007C10.7935 -0.320993 13.2075 -0.320993 15.0765 0.941007L21.5765 5.32701C23.0945 6.35001 24.0005 8.05501 24.0005 9.88601ZM21.0005 9.88601C21.0005 9.05301 20.5885 8.27901 19.8985 7.81401L13.3985 3.42701C12.9735 3.14001 12.4865 2.99701 12.0005 2.99701C11.5145 2.99701 11.0265 3.14001 10.6025 3.42701L4.10249 7.81301C3.41349 8.27901 3.00049 9.05301 3.00049 9.88601V18.5C3.00049 19.878 4.12149 21 5.50049 21H18.5005C19.8795 21 21.0005 19.878 21.0005 18.5V9.88601Z" fill="#0066FF"/>
</g>
<defs>
<clipPath id="clip0_184_2852">
<rect width="24" height="24" fill="white" transform="translate(0.000488281)"/>
</clipPath>
</defs>
</svg>
