<svg width="24" height="24" viewBox="0 0 24 24" fill="none" xmlns="http://www.w3.org/2000/svg">
<g clip-path="url(#clip0_540_5251)">
<path d="M22.9995 11.0001C22.7343 11.0001 22.4799 10.8947 22.2924 10.7072C22.1049 10.5196 21.9995 10.2653 21.9995 10.0001C21.9974 7.87897 21.1538 5.84537 19.654 4.34554C18.1542 2.8457 16.1206 2.00217 13.9995 2.00005C13.7343 2.00005 13.4799 1.89469 13.2924 1.70716C13.1049 1.51962 12.9995 1.26527 12.9995 1.00005C12.9995 0.734834 13.1049 0.48048 13.2924 0.292944C13.4799 0.105408 13.7343 5.06813e-05 13.9995 5.06813e-05C16.6508 0.00296228 19.1926 1.05747 21.0674 2.9322C22.9421 4.80693 23.9966 7.34878 23.9995 10.0001C23.9995 10.2653 23.8941 10.5196 23.7066 10.7072C23.5191 10.8947 23.2647 11.0001 22.9995 11.0001ZM19.9995 10.0001C19.9995 8.40875 19.3674 6.88263 18.2421 5.75741C17.1169 4.63219 15.5908 4.00005 13.9995 4.00005C13.7343 4.00005 13.4799 4.10541 13.2924 4.29294C13.1049 4.48048 12.9995 4.73483 12.9995 5.00005C12.9995 5.26527 13.1049 5.51962 13.2924 5.70716C13.4799 5.89469 13.7343 6.00005 13.9995 6.00005C15.0604 6.00005 16.0778 6.42148 16.8279 7.17162C17.5781 7.92177 17.9995 8.93919 17.9995 10.0001C17.9995 10.2653 18.1049 10.5196 18.2924 10.7072C18.4799 10.8947 18.7343 11.0001 18.9995 11.0001C19.2647 11.0001 19.5191 10.8947 19.7066 10.7072C19.8941 10.5196 19.9995 10.2653 19.9995 10.0001ZM22.1825 22.1641L23.0925 21.1151C23.6717 20.534 23.9969 19.747 23.9969 18.9266C23.9969 18.1061 23.6717 17.3191 23.0925 16.7381C23.0615 16.7071 20.6555 14.8561 20.6555 14.8561C20.0781 14.3064 19.311 14.0003 18.5138 14.0014C17.7166 14.0025 16.9504 14.3108 16.3745 14.8621L14.4685 16.4681C12.9127 15.8241 11.4994 14.8792 10.3098 13.6876C9.12019 12.4959 8.17772 11.081 7.5365 9.52405L9.1365 7.62405C9.68822 7.04822 9.9968 6.28193 9.9981 5.48445C9.99941 4.68698 9.69333 3.91968 9.1435 3.34205C9.1435 3.34205 7.2905 0.939051 7.2595 0.908051C6.68895 0.333799 5.91538 0.0070727 5.10593 -0.00153454C4.29648 -0.0101418 3.51613 0.300061 2.9335 0.862051L1.7835 1.86205C-5.0105 9.74405 9.6195 24.2611 17.7615 24.0001C18.5837 24.0048 19.3985 23.8448 20.1578 23.5295C20.9171 23.2141 21.6056 22.7499 22.1825 22.1641Z" fill="#0066FF"/>
</g>
<defs>
<clipPath id="clip0_540_5251">
<rect width="24" height="24" fill="white" transform="translate(-0.000488281)"/>
</clipPath>
</defs>
</svg>
