<svg width="24" height="24" viewBox="0 0 24 24" fill="none" xmlns="http://www.w3.org/2000/svg">
<g clip-path="url(#clip0_683_10495)">
<path d="M5.5 8H2.5C1.119 8 0 6.881 0 5.5V2.5C0 1.119 1.119 0 2.5 0H5.5C6.881 0 8 1.119 8 2.5V5.5C8 6.881 6.881 8 5.5 8ZM5.5 18H2.5C1.119 18 0 16.881 0 15.5V12.5C0 11.119 1.119 10 2.5 10H5.5C6.881 10 8 11.119 8 12.5V15.5C8 16.881 6.881 18 5.5 18ZM15.5 0H12.5C11.119 0 10 1.119 10 2.5V5.5C10 6.881 11.119 8 12.5 8H15.5C16.881 8 18 6.881 18 5.5V2.5C18 1.119 16.881 0 15.5 0ZM15 4.5C15 4.776 14.776 5 14.5 5H13.5C13.224 5 13 4.776 13 4.5V3.5C13 3.224 13.224 3 13.5 3H14.5C14.776 3 15 3.224 15 3.5V4.5ZM15 12.107C15 11.111 14.319 10.187 13.336 10.027C12.083 9.823 11 10.785 11 12V20.817C9.924 19.931 8.889 19.065 8.855 19.033C7.933 18.172 6.482 18.22 5.62 19.142C4.757 20.065 4.801 21.514 5.718 22.372L7.539 24H24.001V23.407C24.001 21.352 22.743 19.506 20.83 18.754L15.001 16.462V12.107H15Z" fill="#0066FF"/>
</g>
<defs>
<clipPath id="clip0_683_10495">
<rect width="24" height="24" fill="white" transform="translate(-0.000488281)"/>
</clipPath>
</defs>
</svg>
