<svg width="25" height="24" viewBox="0 0 25 24" fill="none" xmlns="http://www.w3.org/2000/svg">
<g clip-path="url(#clip0_683_10319)">
<path d="M22.5115 1.99998V5.72398C23.7675 6.66598 24.5115 8.14298 24.5115 9.72398V18.0192C24.5115 18.3856 24.1241 18.6344 23.7648 18.563C23.0978 18.4306 22.3846 18.4954 21.7521 18.7423C21.5002 18.8407 21.205 18.7633 21.0301 18.557C20.0602 17.4125 18.3271 17.0351 16.9416 17.5934C16.6931 17.6935 16.3991 17.6234 16.2292 17.4163C14.3815 15.1641 10.5424 15.3569 8.78828 17.4686C8.6202 17.671 8.33375 17.7424 8.08992 17.6436C6.67424 17.0703 5.04597 17.4028 4.03007 18.5365C3.85493 18.732 3.5679 18.7971 3.32416 18.6998C2.69377 18.448 1.94269 18.3669 1.2601 18.4878C0.899674 18.5516 0.511475 18.2998 0.511475 17.9337V9.72398C0.511475 8.05898 1.33547 6.50998 2.71447 5.57898L9.71447 0.854984C11.4135 -0.291017 13.6095 -0.291017 15.3085 0.854984L20.5115 4.36598V1.99998C20.5115 1.44798 20.9585 0.999984 21.5115 0.999984C22.0645 0.999984 22.5115 1.44798 22.5115 1.99998Z" fill="#0066FF"/>
<path d="M24.2017 21.0182C24.174 20.9794 24.1413 20.9445 24.1055 20.913C23.8327 20.6732 23.5015 20.4987 23.1703 20.4987C22.5501 20.4987 22.1804 20.9284 21.6267 21.0727C21.529 21.0982 21.4276 21.1116 21.3278 21.1272C21.1437 21.1561 20.9355 21.1448 20.7703 21.0932C20.3424 20.9598 19.8692 20.6773 19.7115 20.2344C19.4057 19.0897 17.4304 19.0269 16.9852 20.099C16.8378 20.4541 16.5799 20.6798 16.259 20.8694C15.7692 21.1587 15.0992 21.1452 14.5585 20.829C14.0005 20.5679 13.939 19.8984 13.426 19.6086C12.8188 19.2656 12.1934 19.2585 11.5972 19.6092C11.3885 19.732 11.2673 19.9296 11.197 20.099C11.178 20.1447 11.159 20.1905 11.1341 20.2333C10.9939 20.4751 10.7942 20.7077 10.535 20.829C9.87729 21.1368 9.2592 21.157 8.62228 20.7885C8.37833 20.6474 8.19238 20.4079 8.06442 20.1684C7.65228 19.3969 6.62346 19.0743 5.87618 19.5738C5.68207 19.6949 5.48795 19.8715 5.34821 20.1037C5.08065 20.5481 4.76899 20.8661 4.25265 21.0272C4.04089 21.0932 3.75853 21.0932 3.54677 21.0272C3.335 20.9611 3.05265 20.895 2.91147 20.7629C2.7703 20.6308 2.62912 20.5647 2.41736 20.4987C2.20559 20.4326 2.06442 20.4326 1.85265 20.4326C1.64089 20.4326 1.49971 20.4987 1.28795 20.5647C1.14677 20.6308 0.935004 20.7629 0.793828 20.895C0.694414 20.9881 0.630003 21.0811 0.575946 21.1972C0.527689 21.3009 0.511475 21.416 0.511475 21.5303C0.511475 21.6902 0.511475 21.8022 0.511475 21.952C0.511475 22.126 0.56589 22.2491 0.626945 22.4107C0.644451 22.457 0.663911 22.5027 0.689591 22.5451C0.766268 22.6715 0.88593 22.831 1.00559 22.943C1.81158 23.5716 2.74539 23.9609 3.80702 23.9972C4.56997 24.0232 5.48018 23.7804 6.15086 23.4233C6.54971 23.211 7.03911 23.2103 7.44269 23.4135C8.11379 23.7514 8.90087 23.9339 9.68795 23.9339C10.5058 23.9339 11.2815 23.7368 11.9826 23.3732C12.3565 23.1792 12.8076 23.1792 13.1816 23.3732C13.8826 23.7368 14.6583 23.9339 15.4762 23.9339C16.2832 23.9339 17.0491 23.742 17.7429 23.3875C18.1316 23.1889 18.6009 23.2001 18.9847 23.408C19.615 23.7494 20.3141 23.9339 21.0527 23.9339C22.2551 24.0042 24.5115 23.4985 24.5115 21.952C24.5115 21.6447 24.3893 21.2802 24.2017 21.0182Z" fill="#0066FF"/>
</g>
<defs>
<clipPath id="clip0_683_10319">
<rect width="24" height="24" fill="white" transform="translate(0.511475)"/>
</clipPath>
</defs>
</svg>
