<svg width="24" height="24" viewBox="0 0 24 24" fill="none" xmlns="http://www.w3.org/2000/svg">
<g clip-path="url(#clip0_683_10395)">
<path d="M7.5506 15C7.2026 17.11 7.0006 18.732 7.0006 19.5C7.0006 21.93 8.9626 24 12.0006 24C15.0386 24 17.0006 21.93 17.0006 19.5C17.0006 18.732 16.7986 17.11 16.4506 15H7.5506ZM5.0946 2.141C6.4536 1.218 8.0006 0.564 9.6466 0.239C9.8656 0.611 10.0006 1.038 10.0006 1.5C10.0006 2.879 8.8786 4 7.5006 4C6.3456 4 5.3796 3.208 5.0946 2.141ZM23.9256 9.367C22.6656 3.939 17.6496 0 12.0006 0C11.9086 0 11.8196 0.01 11.7276 0.012C11.8926 0.48 12.0006 0.976 12.0006 1.5C12.0006 3.981 9.9816 6 7.5006 6C5.7246 6 4.2006 4.957 3.4686 3.46C1.8236 5.039 0.609598 7.067 0.075598 9.368C-0.125402 10.232 0.081598 11.134 0.641598 11.839C1.2276 12.577 2.1076 13 3.0546 13H20.9456C21.8926 13 22.7726 12.577 23.3586 11.839C23.9196 11.134 24.1266 10.233 23.9256 9.367ZM11.0006 11C9.8956 11 9.0006 10.105 9.0006 9C9.0006 7.895 9.8956 7 11.0006 7C12.1056 7 13.0006 7.895 13.0006 9C13.0006 10.105 12.1056 11 11.0006 11ZM17.5006 8C16.6726 8 16.0006 7.328 16.0006 6.5C16.0006 5.672 16.6726 5 17.5006 5C18.3286 5 19.0006 5.672 19.0006 6.5C19.0006 7.328 18.3286 8 17.5006 8Z" fill="#0066FF"/>
</g>
<defs>
<clipPath id="clip0_683_10395">
<rect width="24" height="24" fill="white" transform="translate(0.000488281)"/>
</clipPath>
</defs>
</svg>
