<svg width="24" height="24" viewBox="0 0 24 24" fill="none" xmlns="http://www.w3.org/2000/svg">
<g clip-path="url(#clip0_540_5255)">
<path d="M23.9535 6.61829L15.5355 13.6333C14.5969 14.4135 13.3253 14.8517 11.9995 14.8517C10.6738 14.8517 9.40214 14.4135 8.46351 13.6333L0.0455117 6.61829C0.0315117 6.74995 -0.000488281 6.86912 -0.000488281 6.99995V17C0.00109958 18.1046 0.528394 19.1637 1.46573 19.9448C2.40307 20.7259 3.67392 21.1653 4.99951 21.1666H18.9995C20.3251 21.1653 21.596 20.7259 22.5333 19.9448C23.4706 19.1637 23.9979 18.1046 23.9995 17V6.99995C23.9995 6.86912 23.9675 6.74995 23.9535 6.61829Z" fill="#0066FF"/>
<path d="M14.1215 12.455L23.2555 4.84254C22.813 4.23114 22.1889 3.72507 21.4435 3.37315C20.698 3.02123 19.8563 2.83532 18.9995 2.83337H4.9995C4.14272 2.83532 3.301 3.02123 2.55553 3.37315C1.81005 3.72507 1.18598 4.23114 0.7435 4.84254L9.8775 12.455C10.4411 12.9228 11.2041 13.1854 11.9995 13.1854C12.7949 13.1854 13.5579 12.9228 14.1215 12.455Z" fill="#0066FF"/>
</g>
<defs>
<clipPath id="clip0_540_5255">
<rect width="24" height="24" fill="white" transform="translate(-0.000488281)"/>
</clipPath>
</defs>
</svg>
