<svg width="24" height="24" viewBox="0 0 24 24" fill="none" xmlns="http://www.w3.org/2000/svg">
<g clip-path="url(#clip0_683_6645)">
<g clip-path="url(#clip1_683_6645)">
<path d="M22 5.72398V1.99998C22 1.44798 21.553 0.999984 21 0.999984C20.447 0.999984 20 1.44798 20 1.99998V4.36598L14.797 0.854984C13.098 -0.291017 10.902 -0.291017 9.203 0.854984L2.203 5.57898C0.824 6.50998 0 8.05898 0 9.72398V19C0 21.757 2.243 24 5 24H7C7.553 24 8 23.552 8 23V14C8 13.449 8.448 13 9 13H15C15.552 13 16 13.449 16 14V23C16 23.552 16.447 24 17 24H19C21.757 24 24 21.757 24 19V9.72398C24 8.14298 23.256 6.66598 22 5.72398Z" fill="#0066FF"/>
</g>
</g>
<defs>
<clipPath id="clip0_683_6645">
<rect width="24" height="24" fill="white" transform="translate(-0.000488281)"/>
</clipPath>
<clipPath id="clip1_683_6645">
<rect width="24" height="24" fill="white"/>
</clipPath>
</defs>
</svg>
