<svg width="24" height="24" viewBox="0 0 24 24" fill="none" xmlns="http://www.w3.org/2000/svg">
<g clip-path="url(#clip0_472_3008)">
<path d="M16.0002 7C16.0002 8.105 15.1052 9 14.0002 9C12.8952 9 12.0002 8.105 12.0002 7C12.0002 5.895 12.8952 5 14.0002 5C15.1052 5 16.0002 5.895 16.0002 7ZM22.5002 18H21.0002V16.5C21.0002 15.672 20.3292 15 19.5002 15C18.6712 15 18.0002 15.672 18.0002 16.5V18H16.5002C15.6712 18 15.0002 18.672 15.0002 19.5C15.0002 20.328 15.6712 21 16.5002 21H18.0002V22.5C18.0002 23.328 18.6712 24 19.5002 24C20.3292 24 21.0002 23.328 21.0002 22.5V21H22.5002C23.3292 21 24.0002 20.328 24.0002 19.5C24.0002 18.672 23.3292 18 22.5002 18ZM16.0002 15L11.0772 10.077C9.65424 8.654 7.34624 8.654 5.92324 10.077L3.00024 13V5.5C3.00024 4.121 4.12224 3 5.50024 3H15.5002C16.8782 3 18.0002 4.121 18.0002 5.5V11.5C18.0002 12.328 18.6712 13 19.5002 13C20.3292 13 21.0002 12.328 21.0002 11.5V5.5C21.0002 2.468 18.5332 0 15.5002 0H5.50024C2.46724 0 0.000244141 2.468 0.000244141 5.5V15.5C0.000244141 18.532 2.46724 21 5.50024 21H11.5002C12.3292 21 13.0002 20.328 13.0002 19.5V19C13.0002 17.343 14.3432 16 16.0002 16V15Z" fill="#0066FF"/>
</g>
<defs>
<clipPath id="clip0_472_3008">
<rect width="24" height="24" fill="white" transform="translate(0.000244141)"/>
</clipPath>
</defs>
</svg>
