<svg width="24" height="24" viewBox="0 0 24 24" fill="none" xmlns="http://www.w3.org/2000/svg">
<g clip-path="url(#clip0_683_6604)">
<path d="M15.634 12.43C15.634 13.707 13.717 15.921 12.333 17.028C12.214 17.123 12.053 17.124 11.934 17.028C10.55 15.921 8.63402 13.706 8.63402 12.43C8.63402 11.641 9.19502 11 9.88402 11C10.506 11 11.134 11.374 11.134 12.209C11.134 12.761 11.581 13.209 12.134 13.209C12.687 13.209 13.134 12.761 13.134 12.209C13.134 11.316 13.808 11 14.384 11C15.073 11 15.634 11.642 15.634 12.43ZM23.999 9.72298V18.999C23.999 21.756 21.756 23.999 18.999 23.999H4.99902C2.24202 23.999 -0.000976562 21.756 -0.000976562 18.999V9.72298C-0.000976562 8.05798 0.823024 6.50898 2.20202 5.57798L9.20202 0.854983C10.901 -0.291017 13.097 -0.291017 14.796 0.854983L21.796 5.57898C23.175 6.50998 23.999 8.05898 23.999 9.72398V9.72298ZM17.634 12.43C17.634 10.538 16.176 8.99998 14.384 8.99998C13.494 8.99998 12.709 9.31798 12.134 9.85198C11.559 9.31898 10.774 8.99998 9.88402 8.99998C8.09202 8.99998 6.63402 10.539 6.63402 12.43C6.63402 14.737 9.28302 17.468 10.684 18.59C11.111 18.932 11.622 19.102 12.134 19.102C12.646 19.102 13.156 18.931 13.583 18.59C14.984 17.469 17.634 14.739 17.634 12.43Z" fill="#0066FF"/>
</g>
<defs>
<clipPath id="clip0_683_6604">
<rect width="24" height="24" fill="white" transform="translate(-0.000488281)"/>
</clipPath>
</defs>
</svg>
