<svg width="24" height="24" viewBox="0 0 24 24" fill="none" xmlns="http://www.w3.org/2000/svg">
<g clip-path="url(#clip0_34_37)">
<path d="M21.9995 5.64401V2.50001C21.9995 1.67101 21.3275 1.00001 20.4995 1.00001C19.6715 1.00001 18.9995 1.67101 18.9995 2.50001V3.58901L15.0755 0.941007C13.2065 -0.320993 10.7925 -0.320993 8.92351 0.941007L2.42351 5.32701C0.905512 6.35101 -0.000488281 8.05501 -0.000488281 9.88601V18.5C-0.000488281 21.533 2.46751 24 5.49951 24H8.49951C9.32751 24 9.99951 23.329 9.99951 22.5V14.5C9.99951 14.224 10.2245 14 10.4995 14H13.4995C13.7745 14 13.9995 14.224 13.9995 14.5V22.5C13.9995 23.329 14.6715 24 15.4995 24H18.4995C21.5315 24 23.9995 21.533 23.9995 18.5V9.88601C23.9995 8.23201 23.2605 6.68201 21.9995 5.64401ZM20.9995 18.5C20.9995 19.878 19.8785 21 18.4995 21H16.9995V14.5C16.9995 12.57 15.4295 11 13.4995 11H10.4995C8.56951 11 6.99951 12.57 6.99951 14.5V21H5.49951C4.12051 21 2.99951 19.878 2.99951 18.5V9.88601C2.99951 9.05301 3.41151 8.27901 4.10151 7.81301L10.6015 3.42701C11.4515 2.85401 12.5485 2.85401 13.3985 3.42701L19.8985 7.81401C20.5875 8.27901 21.0005 9.05401 21.0005 9.88601L20.9995 18.5Z" fill="#0066FF"/>
</g>
<defs>
<clipPath id="clip0_34_37">
<rect width="24" height="24" fill="white" transform="translate(0.000488281)"/>
</clipPath>
</defs>
</svg>
