<svg width="25" height="25" viewBox="0 0 25 25" fill="none" xmlns="http://www.w3.org/2000/svg">
<g clip-path="url(#clip0_553_3679)">
<path d="M16.8886 3.22939C16.1416 2.59538 15.3585 1.92936 14.5615 1.20534C14.1985 0.874213 13.7671 0.626893 13.298 0.480872C12.8288 0.334851 12.3333 0.293697 11.8464 0.360319C11.3729 0.422253 10.9187 0.587339 10.516 0.843932C10.1132 1.10052 9.77164 1.44237 9.51539 1.84536C8.56538 3.40595 7.84909 5.09728 7.38933 6.86549C7.171 6.57518 6.89105 6.33687 6.5696 6.1677C6.24816 5.99853 5.89321 5.9027 5.53031 5.88712C5.1674 5.87153 4.80554 5.93657 4.47078 6.07755C4.13601 6.21854 3.83665 6.43197 3.59423 6.70248C1.89906 8.43608 0.960448 10.7711 0.984166 13.1957C0.961628 15.6563 1.76297 18.0537 3.26059 20.0062C4.75821 21.9587 6.86601 23.354 9.24838 23.9699C10.1822 24.2075 11.1419 24.3284 12.1055 24.3299C13.5677 24.3319 15.0159 24.0456 16.3673 23.4872C17.7187 22.9289 18.9468 22.1096 19.9812 21.0762C21.0157 20.0428 21.8362 18.8155 22.3958 17.4647C22.9555 16.1138 23.2433 14.6659 23.2427 13.2037C23.2427 8.62953 20.2987 6.12947 16.8886 3.22939ZM17.1066 19.6158C16.8205 19.836 16.5198 20.0364 16.2066 20.2158C16.4935 19.6166 16.6438 18.9612 16.6466 18.2968C16.6466 16.3697 15.3035 14.1327 13.6465 12.1716C13.4564 11.9491 13.2203 11.7705 12.9545 11.648C12.6888 11.5255 12.3996 11.4621 12.107 11.4621C11.8143 11.4621 11.5251 11.5255 11.2594 11.648C10.9936 11.7705 10.7575 11.9491 10.5674 12.1716C8.21535 14.9297 6.74232 17.9118 8.11535 20.3298C6.85264 19.6197 5.80349 18.5838 5.07725 17.3303C4.35102 16.0767 3.97426 14.6513 3.98624 13.2027C3.95522 11.7838 4.43225 10.4006 5.33128 9.30255C5.47262 9.53456 5.62429 9.7589 5.78629 9.97557C6.05384 10.3368 6.42138 10.6117 6.84349 10.7664C7.2656 10.921 7.72376 10.9485 8.16135 10.8456C8.60525 10.7466 9.01117 10.5217 9.33045 10.1978C9.64972 9.87392 9.8688 9.46481 9.9614 9.01954C10.331 7.0568 11.0385 5.17312 12.0525 3.4524C12.0733 3.41823 12.1017 3.38934 12.1355 3.368C12.1693 3.34666 12.2077 3.33345 12.2475 3.3294C12.3004 3.32249 12.3543 3.32724 12.4052 3.3433C12.4562 3.35936 12.503 3.38636 12.5425 3.4224C13.3665 4.17142 14.1755 4.85944 14.9475 5.51345C18.1366 8.22152 20.2427 10.0136 20.2427 13.1997C20.2467 14.4382 19.9661 15.6612 19.4223 16.7741C18.8785 17.8869 18.0862 18.8599 17.1066 19.6178V19.6158Z" fill="#0066FF"/>
</g>
<defs>
<clipPath id="clip0_553_3679">
<rect width="24" height="24" fill="white" transform="translate(0.160889 0.329346)"/>
</clipPath>
</defs>
</svg>
