<svg width="25" height="24" viewBox="0 0 25 24" fill="none" xmlns="http://www.w3.org/2000/svg">
<g clip-path="url(#clip0_652_8981)">
<path d="M10.1255 11.6129C11.2301 11.6129 12.1255 10.7175 12.1255 9.61293C12.1255 8.50835 11.2301 7.61292 10.1255 7.61292C9.02093 7.61292 8.12549 8.50835 8.12549 9.61293C8.12549 10.7175 9.02093 11.6129 10.1255 11.6129Z" fill="#0066FF"/>
<path d="M20.5115 4.022C21.6161 4.022 22.5115 3.12657 22.5115 2.02199C22.5115 0.91741 21.6161 0.0219727 20.5115 0.0219727C19.4069 0.0219727 18.5115 0.91741 18.5115 2.02199C18.5115 3.12657 19.4069 4.022 20.5115 4.022Z" fill="#0066FF"/>
<path d="M12.5115 18.022C13.616 18.022 14.5115 17.1266 14.5115 16.022C14.5115 14.9174 13.616 14.022 12.5115 14.022C11.4069 14.022 10.5114 14.9174 10.5114 16.022C10.5114 17.1266 11.4069 18.022 12.5115 18.022Z" fill="#0066FF"/>
<path d="M24.4535 10.853C24.3858 10.1366 23.8188 9.5693 23.1025 9.501C18.8168 9.08606 15.4254 5.69377 15.0115 1.40798C14.9434 0.692344 14.3771 0.125625 13.6615 0.057C13.2825 0.0219844 12.9005 0 12.5115 0C5.88405 0 0.511475 5.37258 0.511475 12C0.511475 18.6274 5.88405 24 12.5115 24C19.1389 24 24.5115 18.6274 24.5115 12C24.5115 11.612 24.4905 11.23 24.4535 10.853ZM12.5115 21C7.5409 21.0801 3.44655 17.1156 3.36649 12.145C3.28638 7.17445 7.25093 3.08006 12.2215 3C13.2001 7.6657 16.8457 11.3108 21.5115 12.289C21.3508 17.1443 17.3694 20.9978 12.5115 21Z" fill="#0066FF"/>
</g>
<defs>
<clipPath id="clip0_652_8981">
<rect width="24" height="24" fill="white" transform="translate(0.511475)"/>
</clipPath>
</defs>
</svg>
