<svg width="24" height="24" viewBox="0 0 24 24" fill="none" xmlns="http://www.w3.org/2000/svg">
<g clip-path="url(#clip0_19_691)">
<path d="M12.0005 15.6672C9.79441 15.6672 8.00033 13.8731 8.00033 11.667C8.00033 9.46095 9.79441 7.66688 12.0005 7.66688C14.2066 7.66688 16.0007 9.46095 16.0007 11.667C16.0007 13.8731 14.2066 15.6672 12.0005 15.6672ZM5.50023 6.66683C4.67219 6.66683 4.00017 7.33886 4.00017 8.1669C4.00017 8.99493 4.67219 9.66696 5.50023 9.66696C6.32826 9.66696 7.00029 8.99493 7.00029 8.1669C7.00029 7.33886 6.32826 6.66683 5.50023 6.66683ZM17.0007 9.16694C17.0007 9.99497 17.6727 10.667 18.5008 10.667C19.3288 10.667 20.0008 9.99497 20.0008 9.16694C20.0008 8.3389 19.3288 7.66688 18.5008 7.66688C17.6727 7.66688 17.0007 8.3389 17.0007 9.16694ZM5.50023 12.6671C4.67219 12.6671 4.00017 13.3391 4.00017 14.1671C4.00017 14.9952 4.67219 15.6672 5.50023 15.6672C6.32826 15.6672 7.00029 14.9952 7.00029 14.1671C7.00029 13.3391 6.32826 12.6671 5.50023 12.6671ZM17.0007 15.1672C17.0007 15.9952 17.6727 16.6673 18.5008 16.6673C19.3288 16.6673 20.0008 15.9952 20.0008 15.1672C20.0008 14.3392 19.3288 13.6671 18.5008 13.6671C17.6727 13.6671 17.0007 14.3392 17.0007 15.1672ZM16.7717 21.6675C15.1356 21.6675 13.6616 21.2584 12.2345 20.8624C10.9445 20.5054 9.7274 20.1674 8.49935 20.1674C7.1363 20.1674 6.35826 20.3134 5.54623 20.5474C4.22718 20.9274 2.84312 20.6714 1.74407 19.8444C0.637026 19.0103 0 17.7363 0 16.3492V7.41587C0 5.22277 1.38006 3.22169 3.43714 2.43766C4.7802 1.92564 6.05625 1.66663 7.2293 1.66663C8.86537 1.66663 10.3394 2.07564 11.7665 2.47166C13.0555 2.82867 14.2736 3.16669 15.5006 3.16669C16.8637 3.16669 17.6417 3.02068 18.4538 2.78667C19.7698 2.40766 21.1569 2.66267 22.2549 3.4897C23.364 4.32374 24 5.59779 24 6.98485V15.9182C24 18.1113 22.6179 20.1124 20.5619 20.8964C19.2188 21.4084 17.9447 21.6675 16.7717 21.6675ZM8.50035 17.1673C10.1364 17.1673 11.6105 17.5763 13.0375 17.9723C14.3266 18.3293 15.5446 18.6673 16.7717 18.6673C17.5777 18.6673 18.4938 18.4743 19.4948 18.0923C20.4098 17.7433 21.0009 16.8903 21.0009 15.9182V6.98485C21.0009 6.54883 20.7999 6.14981 20.4519 5.8868C20.1138 5.63279 19.6898 5.55379 19.2858 5.66979C18.0608 6.02281 16.9647 6.16681 15.5006 6.16681C13.8646 6.16681 12.3905 5.7578 10.9635 5.36178C9.6744 5.00477 8.45635 4.66675 7.2293 4.66675C6.42327 4.66675 5.50723 4.85976 4.50619 5.24178C3.59115 5.59079 3.00012 6.44383 3.00012 7.41587V16.3492C3.00012 16.7853 3.20113 17.1843 3.54915 17.4463C3.88816 17.7013 4.31218 17.7803 4.7162 17.6643C5.94025 17.3113 7.03729 17.1673 8.50135 17.1673H8.50035Z" fill="#0066FF"/>
</g>
<defs>
<clipPath id="clip0_19_691">
<rect width="24" height="24" fill="white" transform="translate(0.000488281)"/>
</clipPath>
</defs>
</svg>
