<svg width="24" height="24" viewBox="0 0 24 24" fill="none" xmlns="http://www.w3.org/2000/svg">
<g clip-path="url(#clip0_19_669)">
<path d="M18.5005 2H18.0005V1.5C18.0005 0.671 17.3285 0 16.5005 0C15.6725 0 15.0005 0.671 15.0005 1.5V2H9.00049V1.5C9.00049 0.671 8.32849 0 7.50049 0C6.67249 0 6.00049 0.671 6.00049 1.5V2H5.50049C2.46849 2 0.000488281 4.467 0.000488281 7.5V18.5C0.000488281 21.533 2.46849 24 5.50049 24H18.5005C21.5325 24 24.0005 21.533 24.0005 18.5V7.5C24.0005 4.467 21.5325 2 18.5005 2ZM18.5005 21H5.50049C4.12149 21 3.00049 19.878 3.00049 18.5V9H21.0005V18.5C21.0005 19.878 19.8795 21 18.5005 21ZM10.0005 12.5V14.5C10.0005 15.328 9.32849 16 8.50049 16H6.50049C5.67249 16 5.00049 15.328 5.00049 14.5V12.5C5.00049 11.672 5.67249 11 6.50049 11H8.50049C9.32849 11 10.0005 11.672 10.0005 12.5Z" fill="#0066FF"/>
</g>
<defs>
<clipPath id="clip0_19_669">
<rect width="24" height="24" fill="white" transform="translate(0.000488281)"/>
</clipPath>
</defs>
</svg>
