<svg width="24" height="24" viewBox="0 0 24 24" fill="none" xmlns="http://www.w3.org/2000/svg">
<g clip-path="url(#clip0_314_6975)">
<path d="M23.6907 21.0183C23.663 20.9795 23.6303 20.9446 23.5945 20.9131C23.3217 20.6733 22.9905 20.4988 22.6593 20.4988C22.3362 20.4988 21.954 20.5541 21.675 20.7662C21.6234 20.8055 21.5729 20.8466 21.5176 20.8805C21.3836 20.9627 21.2497 21.0379 21.1157 21.0728C21.018 21.0983 20.9166 21.1117 20.8168 21.1273C20.6327 21.1562 20.4245 21.1449 20.2593 21.0933C20.0721 21.0349 19.8849 20.9765 19.6978 20.8269C19.6471 20.7864 19.5953 20.747 19.5439 20.7074C19.3762 20.5786 19.2618 20.4066 19.2005 20.2345C19.1356 19.9918 18.9517 19.749 18.7033 19.6087C18.6592 19.5838 18.615 19.5592 18.5715 19.5335C18.1037 19.2571 17.4738 19.2571 17.0059 19.5335C16.9624 19.5592 16.918 19.5837 16.8745 19.6093C16.6657 19.7321 16.5446 19.9297 16.4743 20.0991C16.4553 20.1448 16.4362 20.1906 16.4114 20.2334C16.2836 20.4538 16.1064 20.6665 15.8797 20.7943C15.8357 20.8191 15.7915 20.8438 15.748 20.8695C15.2582 21.1588 14.5882 21.1453 14.0475 20.8291C13.8301 20.7273 13.6545 20.5472 13.5208 20.3792C13.4462 20.2856 13.4011 20.1729 13.348 20.0657C13.258 19.884 13.1054 19.7163 12.915 19.6087C12.871 19.5838 12.8268 19.5592 12.7833 19.5335C12.3155 19.2571 11.6855 19.2571 11.2177 19.5335C11.1742 19.5592 11.1298 19.5837 11.0862 19.6093C10.8775 19.7321 10.7563 19.9297 10.686 20.0991C10.667 20.1448 10.648 20.1906 10.6231 20.2334C10.4829 20.4752 10.2832 20.7078 10.024 20.8291C9.7664 20.9496 9.50877 21.0152 9.19754 21.0759C9.13696 21.0877 9.07531 21.0941 9.01367 21.091C8.77453 21.079 8.49911 21.0192 8.262 20.8767C8.21215 20.8467 8.16163 20.8177 8.1113 20.7886C7.86735 20.6475 7.68139 20.408 7.55343 20.1685C7.42402 19.9262 7.29461 19.7395 7.05646 19.6083C7.01219 19.5839 6.96791 19.5592 6.92451 19.5333C6.44047 19.2442 5.83816 19.2577 5.36519 19.5739C5.17108 19.695 4.97697 19.8716 4.83722 20.1038C4.81168 20.1462 4.79333 20.1925 4.77091 20.2366C4.69794 20.3803 4.56304 20.5199 4.44792 20.63C4.40104 20.6749 4.34931 20.7144 4.29414 20.7485C4.10998 20.8624 3.92582 20.9698 3.74166 21.0273C3.5299 21.0933 3.24755 21.0933 3.03578 21.0273C2.82402 20.9612 2.54166 20.8951 2.40049 20.763C2.25931 20.6309 2.11814 20.5648 1.90637 20.4988C1.69461 20.4327 1.55343 20.4327 1.34166 20.4327C1.1299 20.4327 0.988724 20.4988 0.776959 20.5648C0.635782 20.6309 0.424018 20.763 0.282841 20.8951C0.183428 20.9882 0.119017 21.0812 0.06496 21.1973C0.0167028 21.301 0.000488281 21.4161 0.000488281 21.5304C0.000488281 21.6903 0.000488281 21.8023 0.000488281 21.9521C0.000488281 22.1261 0.054904 22.2492 0.115958 22.4108C0.133465 22.4571 0.152925 22.5028 0.178604 22.5452C0.255281 22.6716 0.374944 22.8311 0.494606 22.9431C1.3006 23.5717 2.23441 23.961 3.29603 23.9973C3.40084 24.0009 3.49562 23.934 3.60049 23.934C4.32792 23.934 5.0171 23.755 5.63988 23.4234C6.03872 23.2111 6.52812 23.2104 6.9317 23.4136C7.6028 23.7515 8.38988 23.934 9.17696 23.934C9.99479 23.934 10.7705 23.7369 11.4716 23.3732C11.8455 23.1793 12.2966 23.1793 12.6706 23.3732C13.3716 23.7369 14.1474 23.934 14.9652 23.934C15.7722 23.934 16.5382 23.7421 17.2319 23.3876C17.6206 23.189 18.0899 23.2002 18.4737 23.4081C19.104 23.7495 19.8031 23.934 20.5417 23.934C21.604 23.9961 22.6664 23.6491 23.5525 23.0029C23.6634 22.9221 23.7536 22.8155 23.8111 22.6909C23.9153 22.4653 24.0005 22.2087 24.0005 21.9521C24.0005 21.6448 23.8783 21.2803 23.6907 21.0183Z" fill="#0066FF"/>
<path d="M2.96519 16.1647V9.88237C2.96519 9.03531 3.38872 8.25884 4.09461 7.83531L10.5887 3.45884C11.4358 2.89413 12.5652 2.89413 13.4123 3.45884L19.9064 7.83531C20.6123 8.32943 21.0358 9.1059 21.0358 9.88237V16.1647C21.0358 17.0118 21.7417 17.6471 22.5181 17.6471C23.3652 17.6471 24.0005 16.9412 24.0005 16.1647V9.88237C24.0005 8.25884 23.2946 6.7059 22.024 5.64707V2.61178C22.024 1.83531 21.4593 1.12943 20.6828 1.05884C19.7652 0.988251 19.0593 1.69413 19.0593 2.54119V3.60002L15.1064 0.917663C13.2711 -0.352925 10.8005 -0.352925 8.96519 0.917663L2.40049 5.36472C0.918136 6.35296 0.000488281 8.04707 0.000488281 9.88237V16.1647C0.000488281 16.9412 0.706371 17.6471 1.48284 17.6471C2.3299 17.6471 2.96519 16.9412 2.96519 16.1647Z" fill="#0066FF"/>
<path d="M13.4828 11.0117H10.5181C8.61224 11.0117 6.98871 12.5647 6.98871 14.5411V16.1647C6.98871 17.0117 7.69459 17.647 8.47106 17.647C9.31812 17.647 9.95341 16.9411 9.95341 16.1647V14.5411C9.95341 14.2588 10.1652 14.047 10.4475 14.047H13.4122C13.6946 14.047 13.9064 14.2588 13.9064 14.5411V16.1647C13.9064 17.0117 14.6122 17.647 15.3887 17.647C16.2358 17.647 16.8711 16.9411 16.8711 16.1647V14.5411C17.0122 12.5647 15.4593 11.0117 13.4828 11.0117Z" fill="#0066FF"/>
</g>
<defs>
<clipPath id="clip0_314_6975">
<rect width="24" height="24" fill="white" transform="translate(0.000488281)"/>
</clipPath>
</defs>
</svg>
