<svg width="24" height="24" viewBox="0 0 24 24" fill="none" xmlns="http://www.w3.org/2000/svg">
<path d="M23.9995 16.981C24.0065 17.367 23.7915 17.721 23.4465 17.894L19.7445 19.745L17.8935 23.447C17.7235 23.786 17.3765 24 16.9985 24H16.9795C16.5935 23.993 16.2475 23.765 16.0875 23.414L12.1435 14.739C11.8585 13.922 12.0405 13.132 12.5855 12.588C13.1295 12.043 13.9195 11.863 14.6475 12.109C14.6775 12.12 23.4125 16.089 23.4125 16.089C23.7635 16.248 23.9925 16.595 23.9995 16.981ZM13.1425 21.528C13.5215 21.973 13.6065 22.598 13.3615 23.129C13.1155 23.66 12.5845 24 11.9995 24C5.38251 24 -0.000488281 18.617 -0.000488281 12C-0.000488281 5.427 5.44251 0.07 11.9995 0C18.6165 0 23.9995 5.383 23.9995 12C23.9995 12.829 23.3285 13.5 22.4995 13.5C21.6705 13.5 20.9995 12.829 20.9995 12C20.9995 8.154 18.5695 4.872 15.1675 3.587C15.9015 4.936 16.6585 6.657 17.1015 8.613C17.3545 9.731 16.2515 10.683 15.1675 10.312C14.6765 10.144 14.2895 9.744 14.1735 9.239C13.6895 7.127 12.7555 5.319 12.0015 4.103C10.9325 5.83 9.49951 8.75 9.49951 12C9.49951 17.188 13.1055 21.485 13.1425 21.528ZM3.13451 10.5H6.57751C6.85951 7.765 7.86151 5.356 8.82551 3.589C5.87951 4.705 3.67251 7.318 3.13451 10.5ZM8.83051 20.424C7.86551 18.657 6.86851 16.239 6.58551 13.5H3.12751C3.66451 16.686 5.87951 19.31 8.83051 20.424Z" fill="#0066FF"/>
</svg>
