<svg width="24" height="24" viewBox="0 0 24 24" fill="none" xmlns="http://www.w3.org/2000/svg">
<g clip-path="url(#clip0_540_5266)">
<path d="M12.0525 -0.104004C9.40646 -0.101093 6.8696 0.95127 4.99846 2.82222C3.12733 4.69317 2.07471 7.22993 2.07153 9.87598C2.07153 12.446 4.06153 16.468 7.98652 21.83C8.45378 22.4701 9.06558 22.9908 9.77212 23.3499C10.4787 23.7089 11.26 23.896 12.0525 23.896C12.845 23.896 13.6264 23.7089 14.3329 23.3499C15.0395 22.9908 15.6513 22.4701 16.1185 21.83C20.0435 16.468 22.0335 12.446 22.0335 9.87598C22.0303 7.22993 20.9777 4.69317 19.1066 2.82222C17.2354 0.95127 14.6986 -0.101093 12.0525 -0.104004ZM12.0525 13.854C11.2614 13.854 10.488 13.6194 9.83024 13.1799C9.17244 12.7403 8.65975 12.1156 8.357 11.3847C8.05425 10.6538 7.97504 9.84954 8.12938 9.07362C8.28372 8.2977 8.66469 7.58497 9.22409 7.02556C9.7835 6.46615 10.4962 6.08519 11.2722 5.93085C12.0481 5.7765 12.8523 5.85572 13.5832 6.15847C14.3142 6.46122 14.9389 6.97391 15.3784 7.6317C15.8179 8.2895 16.0525 9.06286 16.0525 9.85398C16.0525 10.9148 15.6311 11.9323 14.8809 12.6824C14.1308 13.4325 13.1134 13.854 12.0525 13.854Z" fill="#0066FF"/>
</g>
<defs>
<clipPath id="clip0_540_5266">
<rect width="24" height="24" fill="white" transform="translate(-0.000488281)"/>
</clipPath>
</defs>
</svg>
