<svg width="34" height="34" viewBox="0 0 34 34" fill="none" xmlns="http://www.w3.org/2000/svg">
<g clip-path="url(#clip0_7451_2856)">
<path d="M17.2694 23.7997L10.5969 30.4581C10.1152 30.9539 9.16603 31.2514 8.48603 31.1522L5.3977 30.7272C4.3777 30.5856 3.42853 29.6222 3.2727 28.6022L2.8477 25.5139C2.74853 24.8339 3.07436 23.8847 3.54186 23.4031L10.2002 16.7447C9.06686 13.0614 9.9452 8.88223 12.8635 5.97806C17.0427 1.7989 23.8285 1.7989 28.0219 5.97806C32.2152 10.1572 32.2152 16.9714 28.036 21.1506C25.1177 24.0547 20.9385 24.9472 17.2694 23.7997Z" stroke="#0066FF" stroke-width="2" stroke-linecap="round" stroke-linejoin="round"/>
<path d="M9.76102 24.7773L13.0193 28.0357" stroke="#0066FF" stroke-width="2" stroke-linecap="round" stroke-linejoin="round"/>
<path fill-rule="evenodd" clip-rule="evenodd" d="M20.5417 15.5833C19.3681 15.5833 18.4167 14.6319 18.4167 13.4583C18.4167 12.2847 19.3681 11.3333 20.5417 11.3333C21.7153 11.3333 22.6667 12.2847 22.6667 13.4583C22.6667 14.6319 21.7153 15.5833 20.5417 15.5833Z" stroke="#0066FF" stroke-width="2" stroke-linecap="round" stroke-linejoin="round"/>
</g>
<defs>
<clipPath id="clip0_7451_2856">
<rect width="34" height="34" fill="white"/>
</clipPath>
</defs>
</svg>