<svg width="18" height="18" viewBox="0 0 18 18" fill="none" xmlns="http://www.w3.org/2000/svg">
<path fill-rule="evenodd" clip-rule="evenodd" d="M13.1551 6.23248C12.1361 6.23248 11.3101 5.40645 11.3101 4.38748C11.3101 3.36851 12.1361 2.54248 13.1551 2.54248C14.174 2.54248 15.0001 3.36851 15.0001 4.38748C15.0001 5.40645 14.174 6.23248 13.1551 6.23248Z" stroke-width="1.5" stroke-linecap="round" stroke-linejoin="round"/>
<path fill-rule="evenodd" clip-rule="evenodd" d="M4.84501 6.23248C3.82604 6.23248 3 5.40645 3 4.38748C3 3.36851 3.82604 2.54248 4.84501 2.54248C5.86397 2.54248 6.69 3.36851 6.69 4.38748C6.69 5.40645 5.86397 6.23248 4.84501 6.23248Z" stroke-width="1.5" stroke-linecap="round" stroke-linejoin="round"/>
<path fill-rule="evenodd" clip-rule="evenodd" d="M13.1551 15.4576C12.1361 15.4576 11.3101 14.6315 11.3101 13.6126C11.3101 12.5936 12.1361 11.7676 13.1551 11.7676C14.174 11.7676 15.0001 12.5936 15.0001 13.6126C15.0001 14.6315 14.174 15.4576 13.1551 15.4576Z" stroke-width="1.5" stroke-linecap="round" stroke-linejoin="round"/>
<path fill-rule="evenodd" clip-rule="evenodd" d="M4.84501 15.4576C3.82604 15.4576 3 14.6315 3 13.6126C3 12.5936 3.82604 11.7676 4.84501 11.7676C5.86397 11.7676 6.69 12.5936 6.69 13.6126C6.69 14.6315 5.86397 15.4576 4.84501 15.4576Z" stroke-width="1.5" stroke-linecap="round" stroke-linejoin="round"/>
</svg>
