<svg width="24" height="24" viewBox="0 0 24 24" fill="none" xmlns="http://www.w3.org/2000/svg">
<g clip-path="url(#clip0_314_6949)">
<path d="M23.126 9.86817L20.9741 7.71401V5.99607C20.9741 4.34501 19.6319 3.0014 17.9826 3.0014H16.2664L14.1155 0.848239C12.9847 -0.282746 11.0143 -0.282746 9.8845 0.848239L7.7326 3.0014H6.01646C4.36714 3.0014 3.02494 4.34501 3.02494 5.99607V7.71401L0.873037 9.86817C-0.291663 11.0361 -0.291663 12.9347 0.873037 14.1026L3.02494 16.2568V17.9747C3.02494 19.6258 4.36714 20.9694 6.01646 20.9694H7.7326L9.88351 23.1226C10.4489 23.6876 11.1998 24 11.9995 24C12.7992 24 13.5501 23.6886 14.1145 23.1226L16.2664 20.9694H17.9826C19.6319 20.9694 20.9741 19.6258 20.9741 17.9747V16.2568L23.126 14.1026C24.2907 12.9347 24.2907 11.0361 23.126 9.86817ZM11.9995 18.973C11.1739 18.973 10.5037 18.3021 10.5037 17.4756C10.5037 16.6491 11.1739 15.9783 11.9995 15.9783C12.8252 15.9783 13.4953 16.6491 13.4953 17.4756C13.4953 18.3021 12.8252 18.973 11.9995 18.973ZM13.4424 12.6133C13.255 12.7161 12.9967 13.1753 12.9967 13.4877V13.9818C12.9967 14.5339 12.55 14.9801 11.9995 14.9801C11.4491 14.9801 11.0023 14.5339 11.0023 13.9818V13.4877C11.0023 12.4566 11.6375 11.3286 12.4792 10.8644C12.7683 10.7057 13.0725 10.3303 12.9797 9.80029C12.9109 9.40899 12.5789 9.07658 12.189 9.0087C11.8838 8.9518 11.5887 9.02967 11.3593 9.22432C11.132 9.41398 11.0023 9.69348 11.0023 9.98996C11.0023 10.542 10.5556 10.9882 10.0052 10.9882C9.45472 10.9882 9.00799 10.542 9.00799 9.98996C9.00799 9.10254 9.39788 8.26603 10.077 7.69504C10.755 7.12406 11.6505 6.88249 12.533 7.0432C13.7386 7.25383 14.7308 8.24606 14.9432 9.45591C15.1655 10.7256 14.5623 11.9944 13.4414 12.6143L13.4424 12.6133Z"/>
</g>
<defs>
<clipPath id="clip0_314_6949">
<rect width="24" height="24" fill="white" transform="translate(-0.000488281)"/>
</clipPath>
</defs>
</svg>
