<svg width="24" height="24" viewBox="0 0 24 24" fill="none" xmlns="http://www.w3.org/2000/svg">
<g clip-path="url(#clip0_482_4355)">
<path d="M11.9784 0.000993929C12.6535 -0.0224654 13.0145 0.371651 13.2724 0.939367C14.2007 2.98502 15.1243 5.03536 16.0948 7.05756C16.2636 7.40475 16.6152 7.74726 16.9668 7.91617C18.9453 8.86392 20.9519 9.76476 22.9492 10.675C23.5259 10.933 23.99 11.2755 23.9994 11.9746C24.0088 12.7113 23.5305 13.0631 22.9304 13.3353C20.9097 14.2502 18.8844 15.1651 16.8824 16.1175C16.5496 16.2865 16.2776 16.5586 16.1089 16.8964C15.1618 18.8857 14.2616 20.8892 13.3521 22.8926C13.0849 23.4791 12.7801 23.9905 12.0253 23.9999C11.2377 24.0093 10.9188 23.4885 10.6422 22.8738C9.73269 20.8704 8.83252 18.8623 7.88079 16.8776C7.73076 16.5633 7.41195 16.2583 7.09783 16.1082C5.0959 15.1557 3.07052 14.2408 1.04984 13.3259C0.473172 13.0678 0.00902401 12.7253 -0.000352713 12.0262C-0.00972944 11.2943 0.468484 10.9377 1.06859 10.6656C3.08928 9.75069 5.11465 8.83577 7.11658 7.88332C7.44946 7.71442 7.72138 7.44229 7.89016 7.10448C8.85597 5.07759 9.77957 3.02725 10.7079 0.981593C10.961 0.423262 11.2986 -0.00369793 11.9784 0.000993929Z"/>
</g>
<defs>
<clipPath id="clip0_482_4355">
<rect width="24" height="24" fill="white" transform="translate(-0.000488281)"/>
</clipPath>
</defs>
</svg>
