<svg width="20" height="20" viewBox="0 0 20 20" fill="none" xmlns="http://www.w3.org/2000/svg">
<g clip-path="url(#clip0_4359_2458)">
<path d="M10.7827 19.476C10.4952 20.1752 9.50521 20.1752 9.21771 19.476L6.80937 13.191L0.524375 10.7827C-0.174792 10.4952 -0.174792 9.50521 0.524375 9.21771L6.80937 6.80937L9.21771 0.524375C9.50521 -0.174792 10.4952 -0.174792 10.7827 0.524375L13.191 6.80937L19.476 9.21771C20.1752 9.50521 20.1752 10.4952 19.476 10.7827L13.191 13.191L10.7827 19.476ZM3.98187 6.17104L5.53271 5.53271L6.17438 3.97354L2.90604 1.80521C2.18438 1.32854 1.32771 2.18438 1.80437 2.90687L3.98187 6.17104ZM14.4677 5.53271L16.0185 6.17104L18.1952 2.90687C18.6719 2.18521 17.8152 1.32854 17.0935 1.80521L13.8252 3.97354L14.4677 5.53271ZM16.0235 13.8277L14.4677 14.4685L13.8294 16.0194L17.0944 18.186C17.816 18.6627 18.6727 17.8069 18.196 17.0844L16.0244 13.8285L16.0235 13.8277ZM5.53188 14.4685L3.97604 13.8277L1.80437 17.0835C1.32771 17.8052 2.18438 18.6619 2.90604 18.1852L6.17104 16.0185L5.53271 14.4677L5.53188 14.4685Z"/>
</g>
<defs>
<clipPath id="clip0_4359_2458">
<rect width="20" height="20" fill="white"/>
</clipPath>
</defs>
</svg>
