<svg width="20" height="20" viewBox="0 0 20 20" fill="none" xmlns="http://www.w3.org/2000/svg">
<path d="M18.3335 3.33333H14.916C14.5285 1.43417 12.846 0 10.8335 0H9.16683C7.15516 0 5.47183 1.43417 5.08433 3.33333H1.66683C1.20683 3.33333 0.833496 3.70583 0.833496 4.16667C0.833496 4.6275 1.20683 5 1.66683 5H2.3835L3.4635 16.2325C3.67016 18.3808 5.4535 20 7.611 20H12.3835C14.5443 20 16.3277 18.3775 16.5318 16.2267L17.5952 5H18.3327C18.7927 5 19.166 4.6275 19.166 4.16667C19.166 3.70583 18.7935 3.33333 18.3335 3.33333ZM9.16683 1.66667H10.8335C11.9185 1.66667 12.8352 2.36583 13.1802 3.33333H6.821C7.166 2.36583 8.08266 1.66667 9.16766 1.66667H9.16683ZM13.0893 13.5775C13.4152 13.9033 13.4152 14.43 13.0893 14.7558C12.9268 14.9183 12.7135 15 12.5002 15C12.2868 15 12.0735 14.9183 11.911 14.7558L10.0002 12.845L8.08933 14.7558C7.92683 14.9183 7.7135 15 7.50016 15C7.28683 15 7.0735 14.9183 6.911 14.7558C6.58516 14.43 6.58516 13.9033 6.911 13.5775L8.82183 11.6667L6.911 9.75583C6.58516 9.43 6.58516 8.90333 6.911 8.5775C7.23683 8.25167 7.7635 8.25167 8.08933 8.5775L10.0002 10.4883L11.911 8.5775C12.2368 8.25167 12.7635 8.25167 13.0893 8.5775C13.4152 8.90333 13.4152 9.43 13.0893 9.75583L11.1785 11.6667L13.0893 13.5775Z"/>
</svg>
