<svg width="24" height="24" viewBox="0 0 24 24" fill="none" xmlns="http://www.w3.org/2000/svg">
<g clip-path="url(#clip0_753_14123)">
<path d="M23.091 15.8384L15.0051 3.06908C14.3246 2.08836 13.1937 1.49792 12.0029 1.49792C10.812 1.49792 9.68115 2.07835 8.97063 3.0991L0.924732 15.8184C-0.0960161 17.2795 -0.286156 19.0308 0.424365 20.3818C1.12488 21.7328 2.59596 22.5033 4.43731 22.5033H19.5684C21.4198 22.5033 22.8808 21.7328 23.5813 20.3818C24.2819 19.0308 24.0917 17.2895 23.091 15.8384ZM11.0021 7.50233C11.0021 6.95192 11.4525 6.50159 12.0029 6.50159C12.5533 6.50159 13.0036 6.95192 13.0036 7.50233V13.5067C13.0036 14.0571 12.5533 14.5075 12.0029 14.5075C11.4525 14.5075 11.0021 14.0571 11.0021 13.5067V7.50233ZM12.0029 19.5111C11.1722 19.5111 10.5018 18.8406 10.5018 18.01C10.5018 17.1794 11.1722 16.5089 12.0029 16.5089C12.8335 16.5089 13.504 17.1794 13.504 18.01C13.504 18.8406 12.8335 19.5111 12.0029 19.5111Z"/>
</g>
<defs>
<clipPath id="clip0_753_14123">
<rect width="24" height="24" fill="white" transform="translate(-0.000488281 0.000610352)"/>
</clipPath>
</defs>
</svg>
