<svg width="24" height="24" viewBox="0 0 24 24" fill="none" xmlns="http://www.w3.org/2000/svg">
<g clip-path="url(#clip0_681_6837)">
<path d="M13.999 12C13.999 13.103 13.102 14 11.999 14C10.896 14 9.99903 13.103 9.99903 12C9.99903 10.897 10.896 10 11.999 10C13.102 10 13.999 10.897 13.999 12ZM24 15.548C24 17.611 22.7 19.492 20.766 20.229C19.425 20.741 18.158 21 16.998 21C15.364 21 13.9 20.601 12.485 20.215C11.137 19.847 9.86503 19.5 8.49903 19.5C6.92803 19.5 5.93703 19.601 5.08003 19.849C3.87403 20.196 2.60603 19.962 1.60003 19.205C0.58303 18.44 3.05176e-05 17.272 3.05176e-05 16V8.452C3.05176e-05 6.389 1.29903 4.508 3.23303 3.771C4.57403 3.259 5.84203 3 7.00103 3C8.63503 3 10.098 3.399 11.514 3.785C12.862 4.153 14.134 4.5 15.5 4.5C17.07 4.5 18.062 4.399 18.919 4.151C20.127 3.804 21.395 4.038 22.4 4.795C23.417 5.56 24 6.728 24 8V15.548ZM6.00003 14C6.00003 13.448 5.55203 13 5.00003 13C4.44803 13 4.00003 13.448 4.00003 14C4.00003 14.552 4.44803 15 5.00003 15C5.55203 15 6.00003 14.552 6.00003 14ZM6.00003 8C6.00003 7.448 5.55203 7 5.00003 7C4.44803 7 4.00003 7.448 4.00003 8C4.00003 8.552 4.44803 9 5.00003 9C5.55203 9 6.00003 8.552 6.00003 8ZM16 12C16 9.794 14.206 8 12 8C9.79403 8 8.00003 9.794 8.00003 12C8.00003 14.206 9.79403 16 12 16C14.206 16 16 14.206 16 12ZM20 16C20 15.448 19.552 15 19 15C18.448 15 18 15.448 18 16C18 16.552 18.448 17 19 17C19.552 17 20 16.552 20 16ZM20 10C20 9.448 19.552 9 19 9C18.448 9 18 9.448 18 10C18 10.552 18.448 11 19 11C19.552 11 20 10.552 20 10Z"/>
</g>
<defs>
<clipPath id="clip0_681_6837">
<rect width="24" height="24" fill="white" transform="translate(-0.000488281)"/>
</clipPath>
</defs>
</svg>
