<svg width="25" height="24" viewBox="0 0 25 24" fill="none" xmlns="http://www.w3.org/2000/svg">
<path d="M12.4639 0C9.28233 0.00344108 6.23208 1.26883 3.98239 3.51852C1.7327 5.76821 0.467308 8.81846 0.463867 12C1.06387 27.9 23.8639 27.893 24.4639 12C24.4604 8.81846 23.195 5.76821 20.9453 3.51852C18.6957 1.26883 15.6454 0.00344108 12.4639 0ZM12.4639 13C12.1795 13.0038 11.8963 13.0373 11.6189 13.1C11.5931 12.5423 11.4406 11.9979 11.1729 11.508C11.4222 11.414 11.6603 11.2926 11.8829 11.146C12.0942 10.9972 12.289 10.8263 12.4639 10.636C12.8161 11.0275 13.2596 11.326 13.7549 11.505C13.4872 11.9949 13.3347 12.5393 13.3089 13.097C13.0313 13.0353 12.7481 13.0028 12.4639 13ZM18.4929 8.461L15.6539 9.646C15.4115 9.74214 15.1493 9.77761 14.8901 9.7493C14.631 9.72099 14.3826 9.62977 14.1667 9.48358C13.9508 9.33739 13.774 9.14065 13.6515 8.91049C13.529 8.68034 13.4646 8.42373 13.4639 8.163V5.08C14.5017 5.23119 15.4924 5.61347 16.3628 6.19865C17.2332 6.78382 17.9611 7.55695 18.4929 8.461ZM11.4639 5.08V8.163C11.4633 8.42336 11.3993 8.67966 11.2773 8.90965C11.1552 9.13965 10.9789 9.33639 10.7636 9.48281C10.5484 9.62922 10.3006 9.72089 10.0418 9.74985C9.7831 9.77881 9.5212 9.74419 9.27887 9.649L6.41987 8.485C6.95012 7.57439 7.67911 6.79525 8.55248 6.20568C9.42584 5.6161 10.421 5.23131 11.4639 5.08ZM5.67087 10.339L8.30087 11.412C8.60295 11.5326 8.87337 11.7208 9.09135 11.9622C9.30933 12.2036 9.46907 12.4918 9.5583 12.8046C9.64753 13.1174 9.66387 13.4464 9.60607 13.7665C9.54827 14.0866 9.41786 14.3892 9.22487 14.651L7.47787 16.9C6.64347 16.0504 6.0396 15.0019 5.7234 13.8539C5.40721 12.7058 5.38912 11.496 5.67087 10.339ZM9.07087 18.117L10.8639 15.8C11.057 15.5599 11.3017 15.3664 11.5798 15.2338C11.858 15.1012 12.1624 15.0328 12.4705 15.0339C12.7786 15.035 13.0826 15.1054 13.3598 15.2399C13.637 15.3744 13.8804 15.5696 14.0719 15.811L15.8519 18.121C14.8127 18.6925 13.6458 18.9919 12.4599 18.9912C11.2739 18.9905 10.1074 18.6898 9.06887 18.117H9.07087ZM17.4469 16.911L15.7139 14.662C15.5174 14.3995 15.3844 14.0952 15.325 13.7728C15.2656 13.4504 15.2816 13.1186 15.3716 12.8034C15.4616 12.4882 15.6233 12.1981 15.844 11.9557C16.0647 11.7132 16.3385 11.5251 16.6439 11.406L19.2519 10.315C19.54 11.4772 19.5251 12.6939 19.2087 13.8487C18.8924 15.0035 18.2851 16.0579 17.4449 16.911H17.4469Z" fill="#0C0C0C"/>
</svg>
